<?xml version="1.0" encoding="UTF-8" standalone="no"?><!DOCTYPE svg PUBLIC "-//W3C//DTD SVG 1.1//EN" "http://www.w3.org/Graphics/SVG/1.1/DTD/svg11.dtd"><svg width="100%" height="100%" viewBox="0 0 4816 5279" version="1.1" xmlns="http://www.w3.org/2000/svg" xmlns:xlink="http://www.w3.org/1999/xlink" xml:space="preserve" xmlns:serif="http://www.serif.com/" style="fill-rule:evenodd;clip-rule:evenodd;stroke-linejoin:round;stroke-miterlimit:2;"><rect id="Artboard1" x="0" y="0" width="4815.61" height="5278.15" style="fill:none;"/><clipPath id="_clip1"><rect x="0" y="0" width="4815.61" height="5278.15"/></clipPath><g clip-path="url(#_clip1)"><g id="g5872"><g id="g6060"><path id="path5862" d="M4089.74,2481.36c68.875,96.935 692.941,-2175.83 695.812,-2196.43c19.849,-142.428 -224.42,-282.747 -322.012,-282.522l-1307.73,0.541l-1.621,-0c-143.376,-0.022 -281.218,56.062 -383.851,156.177c-68.752,-97.481 -180.964,-155.465 -300.25,-155.151l-1307.46,0.271l-1.73,-0c-231.739,0.191 -439.724,146.475 -518.25,364.504l-0.973,2.594l-0.648,2.486l-590.07,1787.99l-0.487,2.107l-0.864,2.216c-10.666,35.115 -16.145,71.599 -16.267,108.298c0,200.437 165.149,365.099 367.477,367.638l1310.76,0c145.585,0 282.633,-59.661 383.418,-157.906c69.236,96.683 180.533,154.832 299.44,156.447l2.486,0l1307.89,0.108c146.018,0 283.822,-60.255 384.932,-159.366Z" style="fill:#fff;"/><path d="M3154.02,214.189c-144.937,-0 -272.527,95.003 -318.678,224.376l-590.124,1788.21c-4.413,15.013 -6.758,30.558 -6.972,46.205c0,85.384 73.766,154.826 158.772,155.691l1307.89,0.324c146.386,-0.453 276.599,-95.965 321.001,-235.455l584.504,-1769.83c6.107,-16.59 9.511,-35.558 9.511,-54.257c0,-85.708 -70.307,-155.367 -156.447,-155.367l-1307.73,0.109l-1.729,-0Z" style="fill:#cc2131;"/><path d="M1160.89,216.026c-145.153,-0 -272.851,94.787 -318.894,224.107l-589.908,1787.83c-4.603,15.087 -7.023,30.756 -7.187,46.529c-0,85.384 73.657,155.042 158.663,156.123l1308,0c149.909,0 278.688,-100.245 321.218,-235.779l584.45,-1769.62c6.05,-17.411 9.138,-35.715 9.133,-54.148c-0,-85.871 -70.361,-155.475 -156.448,-155.475l-1307.46,0.432l-1.567,-0Z" style="fill:#cc2131;"/><g id="Layer1"><path d="M2134.49,876.511l-670.158,0.433c-60.094,-0 -125.05,49.014 -145.154,109.324l-219.513,668.159c0,-0 -4.918,20.049 -4.918,27.777c-0.089,45.871 37.568,83.698 83.439,83.817l658.756,-0c46.637,-0 84.52,37.882 84.52,84.411c0.088,7.841 -1.061,15.647 -3.405,23.13l-75.062,229.349c-20.157,62.741 -87.168,111.161 -156.502,111.161l-988.242,-2.648c-124.726,0 -192.547,-101.11 -151.584,-225.89l437.946,-1326.16c41.016,-125.05 175.74,-226.269 300.412,-226.269l988.026,0.487c46.355,0.101 84.442,38.272 84.442,84.627c-0,8.578 -1.304,17.106 -3.868,25.292l-73.495,222.647c-18.914,64.633 -74.522,110.351 -145.64,110.351Z" style="fill:#fff;"/><path d="M4167.93,430.567c124.726,0 192.547,101.165 151.53,226.215l-437.621,1326.21c-41.287,124.456 -175.903,225.89 -300.899,225.89l-881.349,0c-124.78,0 -192.818,-101.434 -151.53,-225.89l437.675,-1326.21c40.963,-124.996 175.848,-226.215 300.682,-226.215l881.512,0Z" style="fill:#fff;"/><path d="M3765.38,983.242c0,-0 3.891,-15.348 3.945,-24.211c-0.148,-46.441 -38.401,-84.574 -84.843,-84.574l-0.271,0.001l-0.757,-0.271l-217.676,0c-60.147,0 -125.212,48.961 -145.261,109.001l-219.513,668.429c-0,-0 -5.026,20.049 -5.026,27.885l-0,0.108c-0,45.744 37.641,83.385 83.385,83.385l0.27,-0l-6.917,0.432l225.728,-0c60.525,-0 128.346,-56.581 147.801,-117.376l219.135,-662.809Z" style="fill:#cc2131;"/></g></g><path id="path58621" serif:id="path5862" d="M4817.82,3009.61c0.148,-97.366 -38.723,-190.843 -107.865,-259.395c-68.795,-69.203 -162.464,-108.135 -260.044,-108.082l-1307.84,0.487l-1.459,-0c-143.029,0.118 -280.545,55.885 -383.257,155.421c-68.585,-97.885 -180.945,-156.207 -300.466,-155.962l-1307.84,0.487l-1.351,-0c-143.991,0.172 -282.316,56.842 -385.04,157.744c-9.328,-13.186 -533.92,1421.65 -751.54,2097.19c-27.93,86.699 10.882,210.686 101.083,281.24c102.68,80.314 261.324,101.646 275.469,101.821l1310.87,-0c144.829,-0 281.714,-59.337 382.068,-157.151c69.319,97.017 180.863,155.431 300.088,157.151l1310.43,-0c237.077,-0 452.159,-157.907 522.79,-383.959l-0.865,3.08l584.504,-1769.78l-1.891,5.837c14.429,-39.666 22.156,-83.385 22.156,-126.131Z" style="fill:#fff;"/><path id="path5864" d="M1127.68,2854.05c-144.937,0 -272.851,94.842 -319.056,224.377l-589.638,1787.94c-4.681,14.993 -7.068,30.607 -7.079,46.313c-0,85.276 73.765,154.935 158.447,155.908l1308.27,0.216c149.368,-0 278.201,-100.084 320.677,-235.78l584.504,-1769.51c5.891,-16.59 9.512,-35.613 9.512,-54.149c-0,-86.032 -70.632,-155.529 -156.448,-155.529l-1307.84,0.216l-1.351,0Z" style="fill:#cc2131;"/><path id="path5866" d="M1204.52,4858.9l-208.759,-0c-46.406,-0.327 -84.408,-38.597 -84.408,-85.004c0,-9.206 1.495,-18.351 4.428,-27.077l1.243,-1.351l381.257,-1155.23c12.537,-37.18 -9.728,-67.984 -49.502,-67.984l-257.233,0.163c-46.389,-0.029 -84.628,-38.024 -84.952,-84.412c-0,-8.701 1.891,-17.293 4.323,-25.291l73.333,-222.81c18.914,-64.957 58.472,-118.349 129.32,-118.349l1110.7,-0.162c0.036,-0 0.071,-0 0.107,-0c46.396,-0 84.574,38.178 84.574,84.574c-0,8.539 -1.294,17.03 -3.836,25.183l-65.984,230.591c-18.363,65.706 -79.042,111.221 -147.261,110.459l-262.313,0c-39.558,0 -82.034,30.804 -94.355,67.984l-380.717,1155.23c-18.679,67.071 -80.34,113.734 -149.963,113.486Z" style="fill:#fff;"/><g><path d="M3144.64,2850.43c-145.261,0 -272.959,94.842 -318.948,224.377l-589.908,1787.94c-4.323,14.159 -7.079,30.587 -7.079,46.313c-0,85.276 73.333,154.935 158.555,155.908l1308.06,0.216c149.747,-0 278.309,-100.084 321.056,-235.78l584.233,-1769.51c6.297,-17.19 9.52,-35.355 9.52,-53.662c-0,-85.588 -70.428,-156.016 -156.016,-156.016l-0.116,0l-1307.84,0.216l-1.513,0Z" style="fill:#cc2131;"/><path d="M4155.68,3069.19c125.05,0 192.601,101.164 151.584,226.214l-437.946,1326.21c-40.801,124.456 -175.524,225.89 -300.574,225.89l-881.134,-0c-125.32,-0 -192.979,-101.434 -151.584,-225.89l437.297,-1326.21c41.341,-124.996 176.119,-226.214 301.007,-226.214l881.35,0Z" style="fill:#fff;"/><path d="M3753.03,3621.86c0,0 4.107,-15.347 4.107,-24.21c-0.147,-46.442 -38.401,-84.575 -84.843,-84.575l-0.433,0.001l-0.54,-0.27l-217.406,0c-60.417,0 -125.861,48.961 -145.261,109l-219.73,668.429c0,0 -5.188,20.05 -5.188,27.885c0.089,45.81 37.791,83.464 83.601,83.493l-6.863,0.433l226.106,-0c60.148,-0 127.807,-56.581 147.748,-117.377l218.702,-662.809Z" style="fill:#cc2131;"/></g></g></g></svg>