<?xml version="1.0" encoding="UTF-8" standalone="no"?>
<!-- Created with Inkscape (http://www.inkscape.org/) -->

<svg
   xmlns:dc="http://purl.org/dc/elements/1.1/"
   xmlns:cc="http://creativecommons.org/ns#"
   xmlns:rdf="http://www.w3.org/1999/02/22-rdf-syntax-ns#"
   xmlns:svg="http://www.w3.org/2000/svg"
   xmlns="http://www.w3.org/2000/svg"
   xmlns:sodipodi="http://sodipodi.sourceforge.net/DTD/sodipodi-0.dtd"
   xmlns:inkscape="http://www.inkscape.org/namespaces/inkscape"
   width="700.30701mm"
   height="228.57727mm"
   viewBox="0 0 700.30701 228.57727"
   version="1.1"
   id="svg8"
   inkscape:version="0.92.4 (5da689c313, 2019-01-14)"
   sodipodi:docname="dibujo-2.svg">
  <defs
     id="defs2">
    <clipPath
       id="clipPath842"
       clipPathUnits="userSpaceOnUse">
      <path
         inkscape:connector-curvature="0"
         id="path840"
         d="M 0,435 H 685 V 0 H 0 Z" />
    </clipPath>
  </defs>
  <sodipodi:namedview
     id="base"
     pagecolor="#ffffff"
     bordercolor="#666666"
     borderopacity="1.0"
     inkscape:pageopacity="0.0"
     inkscape:pageshadow="2"
     inkscape:zoom="0.12591887"
     inkscape:cx="1018.2699"
     inkscape:cy="739.14875"
     inkscape:document-units="mm"
     inkscape:current-layer="layer1"
     showgrid="false"
     fit-margin-top="0"
     fit-margin-left="0"
     fit-margin-right="0"
     fit-margin-bottom="0"
     inkscape:window-width="1360"
     inkscape:window-height="706"
     inkscape:window-x="-8"
     inkscape:window-y="-8"
     inkscape:window-maximized="1" />
  <metadata
     id="metadata5">
    <rdf:RDF>
      <cc:Work
         rdf:about="">
        <dc:format>image/svg+xml</dc:format>
        <dc:type
           rdf:resource="http://purl.org/dc/dcmitype/StillImage" />
        <dc:title></dc:title>
      </cc:Work>
    </rdf:RDF>
  </metadata>
  <g
     inkscape:label="Capa 1"
     inkscape:groupmode="layer"
     id="layer1"
     transform="translate(42.870247,32.746471)">
    <rect
       style="opacity:1;fill:#004f9e;fill-opacity:1;fill-rule:evenodd;stroke:none;stroke-width:66.49471283;stroke-linecap:square;stroke-linejoin:miter;stroke-miterlimit:4;stroke-dasharray:none;stroke-opacity:1;paint-order:markers stroke fill"
       id="rect895"
       width="700.30701"
       height="228.57727"
       x="-42.870247"
       y="-32.746471" />
    <g
       id="g902"
       transform="matrix(9.445324,0,0,9.445324,362.34965,-682.80688)">
      <path
         d="m 14.125882,71.995382 c 0.03119,-0.03156 0.06235,-0.0448 0.08829,-0.0448 0.04638,0 0.07912,0.0414 0.07768,0.09235 -0.0018,0.03011 -0.014,0.06287 -0.04402,0.09183 -1.157341,1.438973 -1.998717,3.12055 -1.998717,5.453691 0,2.331181 0.841376,3.980401 1.998717,5.41885 0.03,0.02898 0.04217,0.06209 0.04402,0.09183 0.0015,0.04978 -0.0313,0.09182 -0.07768,0.09182 -0.02596,0 -0.05711,-0.01269 -0.08829,-0.04467 L 9.1955105,78.377956 C 8.9487181,78.16745 8.7925731,77.92105 8.7925731,77.571295 c 0,-0.351722 0.156145,-0.596813 0.4029374,-0.806009 l 4.9303715,-4.769904"
         style="fill:#f5c300;fill-opacity:1;fill-rule:nonzero;stroke:none;stroke-width:0.1309945"
         id="path846"
         inkscape:connector-curvature="0" />
      <path
         d="m 17.916536,71.592035 c -1.930073,0 -2.685255,2.735296 -2.685255,5.996407 0,3.261237 0.755182,5.961035 2.685255,5.961035 1.157994,0 2.145037,-0.678553 2.148572,-1.236328 0,-0.121694 -0.04585,-0.238148 -0.149072,-0.340455 -0.549127,-0.530789 -0.763042,-1.060792 -0.764747,-1.528574 -0.0044,-0.892991 0.770641,-1.558702 1.484955,-1.558702 0.982985,0 1.561848,0.771688 1.561848,1.771308 0,0.946958 -0.404642,1.736725 -0.843083,2.367332 -0.0173,0.02684 -0.0241,0.05489 -0.0241,0.08029 0,0.04951 0.02923,0.09025 0.07322,0.09025 0.02592,0 0.05698,-0.0144 0.09144,-0.04834 l 4.931288,-4.768331 c 0.246009,-0.210509 0.403859,-0.456909 0.403859,-0.806664 0,-0.351721 -0.15785,-0.596809 -0.403859,-0.806009 l -4.931293,-4.769908 c -0.03446,-0.03368 -0.0655,-0.04794 -0.09144,-0.04794 -0.04467,0 -0.07322,0.04113 -0.07322,0.09064 0,0.02555 0.0068,0.0541 0.0241,0.0803 0.438441,0.630214 0.843083,1.420768 0.843083,2.366939 0,0.998703 -0.578863,1.771831 -1.561848,1.771831 -0.714314,0 -1.489406,-0.665317 -1.484955,-1.558832 0.0018,-0.468175 0.21562,-0.998179 0.764747,-1.528313 0.103224,-0.102961 0.149072,-0.218892 0.149072,-0.341243 -0.0037,-0.558559 -0.990578,-1.236718 -2.148572,-1.236718"
         style="fill:#ffffff;fill-opacity:1;fill-rule:nonzero;stroke:none;stroke-width:0.1309945"
         id="path850"
         inkscape:connector-curvature="0" />
      <path
         d="m -37.494791,80.231201 c -0.606499,-0.622562 -0.997737,-1.531287 -0.99595,-2.662662 0,-1.082915 0.381036,-1.994958 0.977333,-2.638436 0.596545,-0.642712 1.407842,-1.014052 2.26479,-1.014052 1.535372,0.0029 2.619052,1.077051 2.62772,2.005158 0,0.497339 -0.314212,0.8822 -0.741156,0.882705 -0.209905,0 -0.406543,-0.07114 -0.552935,-0.207351 -0.144353,-0.137211 -0.231838,-0.334869 -0.231838,-0.576908 0,-0.290494 0.146399,-0.467242 0.25913,-0.594 -0.199957,-0.349405 -0.603181,-0.638626 -1.22677,-0.640411 -0.533804,0.0014 -0.980897,0.277232 -1.303273,0.763345 -0.322628,0.486876 -0.515955,1.184678 -0.515955,2.010002 0,0.823792 0.201489,1.519555 0.531001,2.003887 0.332323,0.484839 0.789363,0.758755 1.323682,0.758755 0.624862,-7.25e-4 1.026806,-0.286163 1.226509,-0.639141 -0.112984,-0.122932 -0.258869,-0.300188 -0.258869,-0.589155 0,-0.242293 0.08748,-0.442502 0.231831,-0.577927 0.146399,-0.136192 0.342783,-0.206333 0.552942,-0.206333 0.426943,0 0.737585,0.38129 0.741157,0.876337 -0.0073,0.933969 -1.092358,2.004645 -2.627722,2.007197 -0.853636,0 -1.673603,-0.337932 -2.281627,-0.96101 m 22.137333,-2.409915 c 0.100243,-0.0014 0.127523,-0.0245 0.14436,-0.05531 0.02139,-0.03419 0.02653,-0.101764 0.02653,-0.182865 -0.0097,-0.477443 -0.382568,-0.918672 -0.954127,-0.918672 -0.718709,0 -1.009209,0.576401 -1.053331,1.15688 z m -14.274829,0.830934 c -0.551401,0.005 -0.924024,0.263721 -0.925808,0.775339 0.0014,0.484587 0.329264,0.809253 0.84496,0.813844 0.333089,7.23e-4 0.670256,-0.185165 0.885517,-0.449645 V 79.08223 c 0.0014,-0.09589 -0.06044,-0.201742 -0.198171,-0.286415 -0.13645,-0.08493 -0.342777,-0.143595 -0.606498,-0.143595 M -8.6357636,78.363 c 0.00362,1.372142 0.599102,1.962569 1.1854451,1.964095 0.6689841,-0.0014 1.1530566,-0.591446 1.1558618,-1.748327 0,-0.602162 -0.1344056,-1.085214 -0.3506864,-1.412686 -0.2203583,-0.326714 -0.5141694,-0.501677 -0.8617904,-0.501677 -0.6924441,0.0014 -1.1252588,0.629199 -1.1288301,1.698595 m -17.4202924,2.613183 c -0.215001,-0.06015 -0.352724,-0.17878 -0.352724,-0.356549 0,-0.07012 0.01864,-0.144606 0.05892,-0.227242 l 0.01171,-0.02422 0.02704,-0.0057 c 0.08416,-0.01605 0.219845,-0.05711 0.340993,-0.151243 0.127521,-0.106861 0.178273,-0.253765 0.178273,-0.66847 v -2.089832 c -0.0073,-0.35196 -0.08901,-0.475658 -0.383327,-0.483054 -0.06558,0 -0.146399,0.0074 -0.231587,0.02523 l -0.04561,0.0092 -0.01808,-0.04359 c -0.03037,-0.08035 -0.04409,-0.155582 -0.04409,-0.227249 0.005,-0.415716 0.463922,-0.628939 0.771253,-0.724833 0.122672,-0.03853 0.235404,-0.0569 0.341253,-0.0569 0.4198,-7.23e-4 0.648321,0.294831 0.745486,0.675353 0.274429,-0.442755 0.714386,-0.736566 1.142856,-0.736566 0.397873,0 0.806455,0.261936 0.807979,0.764371 -0.0014,0.354258 -0.25198,0.729171 -0.675613,0.729171 -0.307582,0.0014 -0.581245,-0.205053 -0.636588,-0.50754 -0.240254,0.07804 -0.580993,0.376193 -0.584564,1.406064 v 1.260171 c 0.0014,0.412405 0.06196,0.56033 0.184651,0.665665 0.117836,0.09207 0.366245,0.137978 0.45373,0.154048 l 0.02856,0.0057 0.01171,0.02422 c 0.03853,0.089 0.06376,0.168833 0.06376,0.244838 0.0014,0.168587 -0.127523,0.285395 -0.329265,0.341758 -0.206326,0.06044 -0.507532,0.08417 -0.91688,0.08417 -0.415211,0 -0.730956,-0.02371 -0.949789,-0.08697 m 4.176606,0 c -0.21704,-0.06015 -0.354511,-0.178781 -0.352472,-0.35655 0,-0.07012 0.02139,-0.144606 0.0569,-0.227241 l 0.01171,-0.02422 0.02704,-0.0057 c 0.08391,-0.01605 0.220358,-0.05712 0.34431,-0.151243 0.124464,-0.10686 0.178021,-0.253766 0.178021,-0.66847 v -2.089833 c -0.01171,-0.351959 -0.09208,-0.475658 -0.383328,-0.483053 -0.06862,0 -0.1441,0.0074 -0.234644,0.02523 l -0.0454,0.0092 -0.01554,-0.0436 c -0.03188,-0.08034 -0.04691,-0.155581 -0.04691,-0.227248 0.0087,-0.415716 0.463923,-0.628939 0.774565,-0.724833 0.119361,-0.03853 0.235157,-0.05689 0.340999,-0.05689 0.418529,-7.24e-4 0.647049,0.294829 0.742689,0.67612 0.276721,-0.443522 0.713866,-0.737334 1.142595,-0.737334 0.397867,0 0.811299,0.261936 0.811299,0.764372 0,0.354258 -0.251987,0.729169 -0.675612,0.729169 -0.310903,0.0014 -0.580993,-0.205053 -0.640421,-0.507538 -0.239742,0.07983 -0.577415,0.376192 -0.580732,1.406063 v 1.260171 c 0.0014,0.412405 0.06196,0.560331 0.184651,0.665665 0.116303,0.09207 0.363186,0.137978 0.455509,0.154049 l 0.02523,0.0057 0.01352,0.02422 c 0.03824,0.089 0.06174,0.168833 0.06174,0.244838 0.0036,0.168587 -0.125737,0.285396 -0.332324,0.341759 -0.203528,0.06044 -0.506006,0.08417 -0.912549,0.08417 -0.418023,0 -0.732236,-0.02371 -0.950809,-0.08697 m 8.839839,-0.0014 c -0.216021,-0.05913 -0.355791,-0.177761 -0.355791,-0.356549 0,-0.06991 0.02016,-0.144101 0.05711,-0.225455 l 0.01171,-0.02422 0.02675,-0.0057 c 0.08569,-0.01605 0.220098,-0.05711 0.342263,-0.151244 0.126758,-0.106861 0.177003,-0.253767 0.17879,-0.668472 v -2.746186 l -0.736315,-0.02602 -0.01504,-0.03369 c -0.03824,-0.09054 -0.05357,-0.176236 -0.05357,-0.256832 0,-0.268044 0.204802,-0.447085 0.465204,-0.447085 h 0.323908 v -0.30376 c 0,-0.735293 0.135172,-1.151784 0.323143,-1.432589 0.287434,-0.446832 0.786045,-0.755182 1.547097,-0.75263 0.9561602,7.23e-4 1.7557249,0.445046 1.7605686,1.159426 0,0.309882 -0.2147481,0.693724 -0.6654054,0.693724 -0.3371732,0 -0.6480702,-0.281572 -0.6498542,-0.638375 0.0014,-0.131094 0.04721,-0.263714 0.109665,-0.363439 -0.09793,-0.08773 -0.291006,-0.140782 -0.477696,-0.139763 -0.293811,0.0014 -0.458567,0.104309 -0.562883,0.274682 -0.09921,0.170625 -0.134152,0.421587 -0.132879,0.703924 v 0.789618 h 1.265535 l 0.01352,0.0347 c 0.03723,0.09105 0.0574,0.180573 0.0574,0.264227 0.0014,0.273915 -0.198936,0.480762 -0.444288,0.502697 -0.09386,0.0099 -0.196384,0.0099 -0.283357,0.0099 -0.21041,0 -0.418782,-0.01424 -0.573336,-0.01757 v 2.724896 c 0,0.410619 0.06912,0.559057 0.191795,0.665665 0.110945,0.09003 0.426683,0.137977 0.516974,0.154048 l 0.02755,0.0057 0.01323,0.02422 c 0.03521,0.07523 0.05177,0.142822 0.05177,0.209392 0,0.187962 -0.152776,0.308088 -0.386392,0.369049 -0.233625,0.06579 -0.567474,0.09233 -0.990847,0.09233 -0.418276,0 -0.737845,-0.02371 -0.956418,-0.08876 m 15.0662323,0.0014 c -0.2160205,-0.06015 -0.3557831,-0.177762 -0.3540047,-0.35655 0,-0.07012 0.0214,-0.144606 0.058415,-0.227241 l 0.011495,-0.02321 0.027545,-0.0073 c 0.080335,-0.01605 0.2213777,-0.0579 0.3407385,-0.15201 0.1264963,-0.106607 0.1780217,-0.253 0.1798075,-0.667705 v -2.089723 c -0.011712,-0.351959 -0.092329,-0.475657 -0.3833354,-0.483053 -0.06832,0 -0.1443534,0.0074 -0.2346439,0.02523 l -0.045402,0.0092 -0.015544,-0.04359 c -0.029569,-0.07856 -0.046921,-0.153281 -0.046921,-0.223676 0.010484,-0.418269 0.4654563,-0.632511 0.7743122,-0.728405 0.1259983,-0.03701 0.2338775,-0.0569 0.3463565,-0.0569 0.4149502,-7.24e-4 0.6444901,0.298908 0.7391178,0.684281 0.2741689,-0.4476 0.7090215,-0.745495 1.139277,-0.745495 0.4027177,0 0.809766,0.261937 0.8112986,0.764372 -0.00145,0.354258 -0.2519805,0.727384 -0.6707697,0.72917 -0.3116609,0.0014 -0.5843038,-0.205053 -0.6444974,-0.50754 -0.2387208,0.07805 -0.5710374,0.375174 -0.5728224,1.406065 v 1.260169 c 0,0.412406 0.058632,0.56161 0.1747026,0.665666 0.1185944,0.09259 0.3662444,0.137977 0.4549951,0.154049 l 0.025231,0.0073 0.013519,0.0232 c 0.040052,0.08977 0.061958,0.17088 0.061958,0.246118 0.00362,0.168074 -0.1221659,0.284115 -0.3274794,0.341244 -0.2035205,0.05964 -0.5054938,0.08339 -0.9107565,0.08339 -0.4180228,0 -0.7340215,-0.02371 -0.9525941,-0.08697 m -9.5335543,0.154796 c -0.6978014,0 -1.337708,-0.263973 -1.8008725,-0.724073 -0.4654562,-0.460353 -0.7523768,-1.117856 -0.7523768,-1.90135 0.0029,-1.551182 1.2226842,-2.604514 2.5999235,-2.607834 0.7393716,0 1.3810639,0.263723 1.8378447,0.723308 0.457294,0.458574 0.7222879,1.111993 0.7222879,1.884526 0,0.774818 -0.2787662,1.432329 -0.7460083,1.89472 -0.4667287,0.463671 -1.1183689,0.730703 -1.8592731,0.730703 z M -18.529441,78.604939 c 0,-0.785278 0.257084,-1.462679 0.708769,-1.942927 0.452189,-0.482034 1.097453,-0.764372 1.859779,-0.764372 0.699081,0 1.21325,0.258106 1.552456,0.628435 0.335641,0.368789 0.49861,0.846744 0.49861,1.288227 0,0.260396 -0.0569,0.503709 -0.168073,0.708508 l -0.01453,0.02834 h -3.111526 c 0.05054,0.904901 0.626647,1.537917 1.629733,1.541488 0.618232,7.24e-4 1.093376,-0.339205 1.251762,-0.5412 l 0.03289,-0.04338 0.04237,0.03267 c 0.09105,0.06478 0.186691,0.18236 0.184904,0.407309 -0.0036,0.521818 -0.615166,1.190542 -1.970471,1.191561 -1.374687,-0.0029 -2.494843,-1.09924 -2.496628,-2.534627 m 17.94364307,2.304835 c -0.0902905,-0.127523 -0.13900358,-0.289221 -0.1846513,-0.475405 -0.0489441,0.0579 -0.1091598,0.12038 -0.19995631,0.206586 -0.33410896,0.312687 -0.76946836,0.50091 -1.25991736,0.50091 -0.5358509,0 -0.990846,-0.206586 -1.281852,-0.548857 -0.4498982,-0.533299 -0.4450544,-1.208399 -0.4468401,-2.169409 v -0.924275 c -0.00817,-0.374407 -0.1242045,-0.503203 -0.4738715,-0.512131 -0.043379,0 -0.094368,0.0043 -0.1441004,0.0089 l -0.043594,0.005 -0.016846,-0.03926 c -0.02552,-0.06833 -0.03904,-0.134665 -0.03904,-0.199443 0.011712,-0.447093 0.5763946,-0.687094 0.9110167,-0.75519 0.1155362,-0.01757 0.2246888,-0.03622 0.3320629,-0.03774 0.2708571,0 0.4690277,0.08748 0.5965508,0.243312 0.1239515,0.15736 0.176489,0.372622 0.176489,0.622564 l -0.010193,1.579487 c -0.00145,0.583799 0.040846,1.019671 0.1716451,1.300981 0.1305811,0.278001 0.3259467,0.409096 0.6898993,0.412406 0.3955678,-0.0014 0.6355689,-0.171385 0.7868049,-0.424899 0.15430874,-0.25454 0.20990441,-0.598336 0.20811863,-0.926581 v -1.277767 c -0.00788,-0.374408 -0.12573721,-0.503202 -0.47183273,-0.512131 -0.045619,0 -0.096407,0.0043 -0.1479249,0.0089 l -0.040558,0.005 -0.018363,-0.03926 c -0.02675,-0.06833 -0.038533,-0.134666 -0.038533,-0.199443 0.00997,-0.447093 0.57461602,-0.687094 0.91025038,-0.75519 0.11604959,-0.01758 0.2267348,-0.03622 0.33462217,-0.03622 0.26907136,-0.0014 0.47081342,0.08594 0.59476497,0.24178 0.12930144,0.157359 0.17776147,0.372621 0.17776147,0.62205 0,0.181339 -0.0148207,0.503201 -0.0148207,1.848818 0,0.568492 -0.0104829,0.870466 -0.0104829,0.962535 0.008676,0.387412 0.13976269,0.561609 0.4955459,0.568752 0.0390399,0 0.0813618,-0.0022 0.12446481,-0.0073 l 0.040269,-0.0036 0.013736,0.03876 c 0.028557,0.0676 0.04186,0.131862 0.04186,0.194854 -0.015037,0.436639 -0.582771,0.611595 -0.9125421,0.676885 -0.11069245,0.01685 -0.21781347,0.03441 -0.30911613,0.03441 h -0.0078798 c -0.25580503,0 -0.42694419,-0.08876 -0.53303862,-0.239488 M -31.917043,79.513693 c -0.0014,-0.496826 0.216281,-0.89903 0.587621,-1.17014 0.368031,-0.271624 0.880414,-0.415212 1.480024,-0.415212 0.37134,0 0.757986,0.06782 1.021708,0.182354 v -0.558798 c -0.0084,-0.561104 -0.220357,-0.880162 -0.850063,-0.888071 -0.119361,0 -0.381289,0.03059 -0.598336,0.105336 0.02039,0.08035 0.03369,0.163484 0.03369,0.243312 0,0.188476 -0.06044,0.360382 -0.17445,0.488157 -0.112732,0.12701 -0.280805,0.206072 -0.482286,0.206072 -0.366245,-0.0029 -0.640167,-0.298148 -0.640167,-0.666431 0.0082,-0.683009 0.835018,-1.143108 1.942167,-1.143108 0.876582,0 1.429524,0.208371 1.723589,0.586096 0.268817,0.340478 0.280804,0.836797 0.282589,1.535365 v 1.825605 c 0.0043,0.353745 0.204287,0.449645 0.644498,0.517488 l 0.04721,0.0079 -0.0014,0.05003 c -0.02573,0.480754 -0.380016,0.680457 -0.759527,0.710807 -0.03369,0.0022 -0.06731,0.0043 -0.09921,0.0043 -0.372874,0.0014 -0.734267,-0.182352 -0.905406,-0.555994 -0.237189,0.197406 -0.767937,0.567728 -1.45503,0.568494 -1.019916,-7.23e-4 -1.796021,-0.689639 -1.797293,-1.633305"
         style="fill:#ffffff;fill-opacity:1;fill-rule:nonzero;stroke:none;stroke-width:0.25504431"
         id="path854"
         inkscape:connector-curvature="0" />
      <g
         aria-label="MAXI"
         style="font-style:normal;font-variant:normal;font-weight:bold;font-stretch:normal;font-size:10.22175026px;line-height:3.42246103px;font-family:Omnes;-inkscape-font-specification:'Omnes Bold';letter-spacing:0px;word-spacing:0px;fill:#f5c300;fill-opacity:1;stroke-width:0.13689844"
         id="text893">
        <path
           d="m -23.684606,84.479778 q 0,-0.480423 0.2351,-0.725745 0.235101,-0.255543 0.684858,-0.255543 h 0.572418 q 0.398648,0 0.582639,0.122661 0.183992,0.112439 0.327096,0.429313 l 1.073284,2.637212 1.063062,-2.637212 q 0.153326,-0.327096 0.337318,-0.439535 0.183991,-0.112439 0.541753,-0.112439 h 0.58264 q 0.459978,0 0.695079,0.255543 0.245322,0.245322 0.245322,0.725745 v 4.783779 q 0,0.480422 -0.194214,0.715522 -0.183991,0.2351 -0.613305,0.2351 h -0.316874 q -0.419092,0 -0.613305,-0.2351 -0.194213,-0.2351 -0.194213,-0.715522 v -0.889293 l 0.01022,-1.952354 -0.684857,1.952354 q -0.01022,0.04089 -0.07155,0.194214 -0.06133,0.153326 -0.255544,0.2351 -0.194213,0.07155 -0.541753,0.07155 -0.449757,0 -0.603083,-0.092 -0.143104,-0.102217 -0.194213,-0.224878 -0.04089,-0.132883 -0.06133,-0.183992 l -0.674635,-1.860358 v 2.749651 q 0,0.480422 -0.183992,0.715522 -0.183991,0.2351 -0.613305,0.2351 h -0.337317 q -0.419092,0 -0.613305,-0.2351 -0.183992,-0.2351 -0.183992,-0.715522 z"
           style="fill:#f5c300;fill-opacity:1;stroke-width:0.13689844"
           id="path904" />
        <path
           d="m -14.034236,90.255066 q -0.265765,0 -0.531531,-0.112439 -0.255544,-0.122661 -0.40887,-0.275987 -0.153326,-0.153326 -0.112439,-0.245322 l 2.126124,-5.560632 q 0.08177,-0.275987 0.367983,-0.419092 0.286209,-0.143104 0.940401,-0.143104 0.64397,0 0.909736,0.143104 0.265765,0.143105 0.357761,0.419092 l 2.2181197,5.540188 q 0.040887,0.092 -0.122661,0.255544 -0.1533262,0.153326 -0.4190918,0.275987 -0.2657655,0.11244 -0.5519745,0.11244 -0.7972964,0 -1.1755014,-0.960845 l -0.183991,-0.480422 h -2.105681 l -0.194213,0.500866 q -0.17377,0.500865 -0.470201,0.725744 -0.286209,0.224878 -0.64397,0.224878 z m 3.046082,-2.933642 -0.695079,-1.911467 -0.705301,1.911467 z"
           style="fill:#f5c300;fill-opacity:1;stroke-width:0.13689844"
           id="path906" />
        <path
           d="m -4.9879694,86.881889 -1.8399151,-2.606546 q -0.040887,-0.08177 0.1533263,-0.265766 0.204435,-0.194213 0.5213093,-0.337318 0.3168742,-0.153326 0.654192,-0.153326 0.3475395,0 0.613305,0.17377 0.2657655,0.17377 0.490644,0.572418 l 0.8381835,1.390158 0.8688488,-1.40038 q 0.204435,-0.357761 0.490644,-0.541753 0.286209,-0.194213 0.6030833,-0.194213 0.327096,0 0.63374849,0.153326 0.30665251,0.143105 0.49064402,0.337318 0.19421325,0.183992 0.15332625,0.255544 l -1.86035856,2.616768 1.86035856,2.616768 q 0.040887,0.07155 -0.15332625,0.265765 -0.19421326,0.183992 -0.51108752,0.337318 -0.30665249,0.143105 -0.64397029,0.143105 -0.7053007,0 -1.1141708,-0.746188 l -0.8688487,-1.40038 -0.8688488,1.40038 q -0.40887,0.746188 -1.0937273,0.746188 -0.327096,0 -0.6337485,-0.143105 -0.3066525,-0.153326 -0.5008658,-0.337318 -0.1839915,-0.194213 -0.1431045,-0.265765 z"
           style="fill:#f5c300;fill-opacity:1;stroke-width:0.13689844"
           id="path908" />
        <path
           d="m 1.4081294,84.449112 q 0,-0.4702 0.2146567,-0.7053 0.2248785,-0.245322 0.654192,-0.245322 h 0.2862091 q 0.899514,0 0.899514,0.950622 v 4.814445 q 0,0.4702 -0.2351003,0.715522 -0.2248785,0.2351 -0.6644137,0.2351 H 2.2769781 q -0.4190917,0 -0.6439702,-0.2351 -0.2248785,-0.245322 -0.2248785,-0.715522 z"
           style="fill:#f5c300;fill-opacity:1;stroke-width:0.13689844"
           id="path910" />
      </g>
    </g>
  </g>
</svg>
