<svg xmlns="http://www.w3.org/2000/svg" viewBox="0 0 530.15 677.4"><defs><style>.cls-1{fill:none;}.cls-2{fill:#f9b830;}.cls-3{fill:#1159a6;}.cls-4{fill:#8c8c8c;}.cls-5{fill:#f05f23;}.cls-6{fill:#fff;}</style></defs><g id="Layer_2" data-name="Layer 2"><g id="Layer_2-2" data-name="Layer 2"><path class="cls-1" d="M230,33.74c.2.27.39.55.59.83C230.35,34.29,230.16,34,230,33.74Z"/><path class="cls-1" d="M231.09,35.34l.57.87Z"/><path class="cls-1" d="M228.79,32.22l.61.79Z"/><path class="cls-1" d="M227.57,30.77l.63.74Z"/><path class="cls-1" d="M225,28.1l.67.67Z"/><path class="cls-1" d="M223.68,26.88l.69.63Z"/><path class="cls-1" d="M226.31,29.39c.22.23.44.47.65.71C226.75,29.86,226.53,29.62,226.31,29.39Z"/><path class="cls-1" d="M232.18,37c.19.31.37.62.55.93C232.55,37.63,232.37,37.32,232.18,37Z"/><path class="cls-1" d="M237,46.4l.45,1.14Z"/><path class="cls-1" d="M237.77,48.48c.15.39.29.8.43,1.19C238.06,49.28,237.92,48.87,237.77,48.48Z"/><path class="cls-1" d="M238.54,50.62c.14.41.28.84.41,1.26C238.82,51.46,238.68,51,238.54,50.62Z"/><path class="cls-1" d="M236.09,44.39l.47,1.11Z"/><path class="cls-1" d="M233.22,38.76c.18.31.36.63.53,1C233.58,39.39,233.4,39.07,233.22,38.76Z"/><path class="cls-1" d="M234.22,40.57c.17.32.34.66.5,1C234.56,41.23,234.39,40.89,234.22,40.57Z"/><path class="cls-1" d="M235.18,42.45l.48,1Z"/><path class="cls-1" d="M214.86,21.35c.27.11.53.24.79.36C215.39,21.59,215.13,21.46,214.86,21.35Z"/><path class="cls-1" d="M222.31,25.75l.7.58Z"/><path class="cls-1" d="M206.52,19.21l.89.12Z"/><path class="cls-1" d="M210,19.78l.86.22Z"/><path class="cls-1" d="M208.25,19.45l.88.17Z"/><path class="cls-1" d="M218.6,90.61,209.65,58.5c-.11-.4-.2-.81-.27-1.22A6.21,6.21,0,0,0,203.16,52h0l-11.9.11a19.82,19.82,0,0,1-7.28,6.35,6.44,6.44,0,0,1-.65.3,14.82,14.82,0,0,1-3.27,1,44,44,0,0,1-11.61,1.52c-2.47-.07-17.63.1-33.68.28C116,61.77,95.38,62,84.4,62c-2.81,0-5,0-6.33,0-6.88-.17-11.53-.65-14.32-2.26a17.4,17.4,0,0,1-7-5,6.44,6.44,0,0,0-1.07,1.08c-.66,1.46-.92,6.41.89,11.17,1.27,3.34,5.59,15.8,10.94,31.36a55.53,55.53,0,0,1,11-1.61C111.82,94.39,166.24,91.77,218.6,90.61Z"/><path class="cls-1" d="M114.7,553c.29,1.27.56,2.56.81,3.85a27.76,27.76,0,0,1,20.54-3.55,21.41,21.41,0,0,1,7.39-5.77,24.79,24.79,0,0,1,20.37-.36c.42.18.83.38,1.25.61l.34-.24c7.4-5,24.72-16.74,24.31-30.31-.27-9.06-8.4-18.38-24.15-27.72a5.65,5.65,0,0,1-.69-.48l-15.29-.55C147.64,505.66,137.66,532.25,114.7,553Z"/><path class="cls-1" d="M204.75,19.07c.3,0,.6,0,.9.06C205.35,19.11,205.05,19.08,204.75,19.07Z"/><path class="cls-1" d="M219.44,23.73l.75.5Z"/><path class="cls-1" d="M218,22.85c.26.14.51.3.76.45C218.46,23.15,218.21,23,218,22.85Z"/><path class="cls-1" d="M220.89,24.7c.25.17.49.36.73.54C221.38,25.06,221.14,24.87,220.89,24.7Z"/><path class="cls-1" d="M239.26,52.81c.14.45.27.9.4,1.36C239.53,53.71,239.4,53.26,239.26,52.81Z"/><path class="cls-1" d="M213.26,20.74c.27.09.55.2.82.31C213.8,20.94,213.53,20.83,213.26,20.74Z"/><path class="cls-1" d="M216.42,22.06c.26.12.52.26.78.4C216.94,22.32,216.68,22.18,216.42,22.06Z"/><path class="cls-1" d="M211.62,20.21c.29.08.56.18.84.27C212.18,20.39,211.91,20.29,211.62,20.21Z"/><path class="cls-1" d="M41.42,121.26c-9-23.73-16.94-45.05-18.53-50.47a41.3,41.3,0,0,1-1.77-14.28,41.3,41.3,0,0,0,1.77,14.28c1.59,5.42,9.53,26.74,18.53,50.47Z"/><path class="cls-1" d="M215.58,44.87c.18.16.37.32.55.5C216,45.19,215.76,45,215.58,44.87Z"/><path class="cls-1" d="M202.81,19l1.06,0-.79,0h-.27l-6.7.06h0Z"/><path class="cls-1" d="M206.39,40.3l-.78-.1Z"/><path class="cls-1" d="M208,40.65l-.75-.17Z"/><path class="cls-1" d="M204.75,40.09l-.79,0Z"/><path class="cls-1" d="M40.77,25.7a38.8,38.8,0,0,1,14.88-5A38.8,38.8,0,0,0,40.77,25.7Z"/><path class="cls-1" d="M209.51,41.14c-.24-.09-.49-.16-.73-.23C209,41,209.27,41.05,209.51,41.14Z"/><path class="cls-1" d="M45.88,48.79c-3.45,4.67-3.67,14.33-.58,22.44,1.26,3.3,5.67,16,11.12,31.89h0C51,87.26,46.56,74.53,45.3,71.23c-3.09-8.11-2.87-17.77.58-22.44A18.62,18.62,0,0,1,49.62,45,18.62,18.62,0,0,0,45.88,48.79Z"/><path class="cls-1" d="M55.65,20.67a42.36,42.36,0,0,1,4.53-.3A42.36,42.36,0,0,0,55.65,20.67Z"/><path class="cls-1" d="M51.78,43.62l-.75.44Z"/><path class="cls-1" d="M239.93,55.07c.14.46.26.94.38,1.41C240.19,56,240.07,55.53,239.93,55.07Z"/><path class="cls-1" d="M54.86,42.29c-.42.13-.83.29-1.24.45C54,42.58,54.44,42.42,54.86,42.29Z"/><polygon class="cls-1" points="71.38 20.26 61.56 20.36 71.38 20.26 71.38 20.26"/><path class="cls-1" d="M56.21,41.89a18.57,18.57,0,0,1,4.24-.52l5.2,0-5.2,0A18.57,18.57,0,0,0,56.21,41.89Z"/><path class="cls-1" d="M219.75,50.57c-.09-.21-.21-.41-.31-.61C219.54,50.16,219.66,50.36,219.75,50.57Z"/><path class="cls-1" d="M220.86,53.64c0-.14-.09-.27-.13-.41C220.77,53.37,220.82,53.5,220.86,53.64Z"/><path class="cls-1" d="M220.37,52.07c-.07-.2-.16-.38-.24-.58C220.21,51.69,220.3,51.87,220.37,52.07Z"/><polygon class="cls-1" points="249.56 90.11 241.66 62.18 249.55 90.11 249.56 90.11"/><path class="cls-1" d="M240.56,57.38l.36,1.49Z"/><path class="cls-1" d="M211,41.75l-.7-.29Z"/><path class="cls-1" d="M241.13,59.75c.19.8.36,1.61.53,2.43C241.49,61.36,241.32,60.55,241.13,59.75Z"/><path class="cls-1" d="M213.72,43.34l-.64-.41Z"/><path class="cls-1" d="M215,44.3l-.6-.46Z"/><path class="cls-1" d="M212.38,42.49c-.21-.13-.44-.24-.66-.35C211.94,42.25,212.17,42.36,212.38,42.49Z"/><path class="cls-1" d="M217.19,46.53,216.7,46C216.86,46.17,217,46.35,217.19,46.53Z"/><path class="cls-1" d="M218.16,47.79c-.14-.2-.3-.38-.45-.58C217.86,47.41,218,47.59,218.16,47.79Z"/><path class="cls-1" d="M219,49.14c-.12-.21-.25-.4-.38-.6C218.76,48.74,218.89,48.93,219,49.14Z"/><path class="cls-2" d="M161.13,635.31a6,6,0,1,1-7.22-9.59c2.32-1.75,9.39-5.42,18.51-8a30.86,30.86,0,0,1-2.29-2.89c-.58-.08-1.16-.17-1.74-.29-9.78-1.91-19.24-8.31-25.94-17.55A52.3,52.3,0,0,1,132.67,565a18,18,0,0,0-2.5-.2c-5,0-9.18,2.27-12.86,5.71.3,4.1.41,8.25.3,12.45a119,119,0,0,1-6.33,35.92c4,11.33,9.56,21.06,15.94,27.43,17.87,17.85,31.33,17.83,47,17.82h1.21c21.08,0,38.12-4.86,42.41-12.09.61-1,2.49-4.22-1.14-10.83A25.29,25.29,0,0,0,199,627.8C183.21,624.4,163.87,633.24,161.13,635.31Z"/><path class="cls-2" d="M185.2,594.45a4.11,4.11,0,0,1,.15-.42c-8.58-1.61-16.48-8.78-21.65-17.28-4.25-7-6.08-13.58-5.5-18.83a12.72,12.72,0,0,0-9.56.45,8.24,8.24,0,0,0-3.79,3.31c-2.15,24.18,14.06,38.81,25.84,41.11C175,603.63,182.52,603.65,185.2,594.45Z"/><path class="cls-3" d="M186.49,489.75c9.82,8.59,14.93,17.68,15.22,27.15.61,20.17-20.55,34.49-29.58,40.61-.76.51-1.41,1-1.94,1.33-.73,2.25,1.95,11.51,9.15,18.48,2.71,2.63,8,6.66,12.74,4.24,27.49-14,46.21-35,50.06-56a40.75,40.75,0,0,0-9.4-34.76C216.55,490.53,200.85,490.16,186.49,489.75Z"/><path class="cls-4" d="M110.89,540.05c17.09-17.46,24.93-38.47,26.67-52l-1.63-.06-5.9-.23c-4,.06-8.22,0-12.47-.26-.63,12.15-5.57,24.19-14.71,36A90.11,90.11,0,0,1,110.89,540.05Z"/><path class="cls-4" d="M370.17,645.16a30.06,30.06,0,0,0,7.38-.77,189.5,189.5,0,0,1-11.83-28c-10.64-4.51-18.77-16.3-18.29-27.32a18.79,18.79,0,0,1,1.05-5.09,187.89,187.89,0,0,0-20-37.48,110.67,110.67,0,0,0-3.25,24.15c-.5,20,4.17,38.89,13.14,53.13C346.84,637.27,358.14,644.86,370.17,645.16Z"/><path class="cls-4" d="M392.92,505.57a99.38,99.38,0,0,1-4.22,19.54q3.69,6.18,7.64,13.27a11.37,11.37,0,0,1,7.36,1.27c7.8,4.48,12.44,11,13.84,19.37l.76.21c-1.43-14.8-5.76-28.44-12.64-39.36A53.55,53.55,0,0,0,392.92,505.57Z"/><path class="cls-4" d="M380.41,484.16c-5.89,1.12-12.55,2.07-19.84,2.87a1.05,1.05,0,0,1,.05.19c6,5.62,12.34,13.47,19.33,24A71.71,71.71,0,0,0,380.41,484.16Z"/><path class="cls-5" d="M196.11,19.08a39.85,39.85,0,0,1,1.48,12,44.78,44.78,0,0,1-1.15,9L203,40h.16c.27,0,.53,0,.8,0l.79,0c.29,0,.57.07.86.11l.78.1c.28.05.55.12.83.18l.75.17.81.26c.24.07.49.14.73.23l.77.32.7.29c.25.12.49.26.74.39s.45.22.66.35.47.29.7.44l.64.41.65.5.6.46c.21.18.41.38.61.57s.37.32.55.5l.57.62.49.54c.19.22.35.46.52.68s.31.38.45.58.32.5.47.75.26.39.38.6.29.55.43.82.22.4.31.61.26.61.38.92.17.38.24.58c.14.38.25.77.36,1.16,0,.14.09.27.13.41.14.54.26,1.08.35,1.64L231,90.37c6.26-.11,12.46-.2,18.56-.26l-7.89-27.93c-.17-.82-.34-1.63-.53-2.43-.06-.29-.14-.58-.21-.88l-.36-1.49c-.08-.3-.16-.6-.25-.9-.12-.47-.24-.95-.38-1.41s-.18-.6-.27-.9c-.13-.46-.26-.91-.4-1.36s-.2-.62-.31-.93-.27-.85-.41-1.26-.23-.63-.34-.95-.28-.8-.43-1.19-.25-.63-.37-.94L237,46.4l-.39-.9-.47-1.11c-.14-.3-.28-.6-.43-.9l-.48-1-.46-.9c-.16-.32-.33-.66-.5-1s-.31-.57-.47-.86-.35-.64-.53-1-.33-.55-.49-.82-.36-.62-.55-.93l-.52-.8-.57-.87-.54-.77c-.2-.28-.39-.56-.59-.83L229.4,33l-.61-.79c-.2-.24-.4-.47-.59-.71l-.63-.74c-.2-.23-.4-.45-.61-.67s-.43-.48-.65-.71-.41-.41-.62-.62L225,28.1l-.65-.59-.69-.63-.67-.55-.7-.58c-.23-.18-.46-.34-.69-.51s-.48-.37-.73-.54-.47-.32-.7-.47l-.75-.5-.73-.43c-.25-.15-.5-.31-.76-.45s-.5-.26-.75-.39-.52-.28-.78-.4-.51-.24-.77-.35-.52-.25-.79-.36l-.78-.3c-.27-.11-.55-.22-.82-.31s-.53-.18-.8-.26-.55-.19-.84-.27-.54-.14-.81-.21l-.86-.22-.82-.16-.88-.17c-.28-.05-.56-.08-.84-.12l-.89-.12-.87-.08c-.3,0-.6-.05-.9-.06s-.59,0-.88,0l-1.06,0Z"/><path class="cls-5" d="M22.89,70.79c1.59,5.42,9.53,26.74,18.53,50.47,4.18-8.84,9.41-14.51,15-18.14C51,87.26,46.56,74.53,45.3,71.23c-3.09-8.11-2.87-17.77.58-22.44A18.62,18.62,0,0,1,49.62,45c.46-.34.93-.65,1.41-.95l.75-.44c.6-.32,1.21-.62,1.84-.88.41-.16.82-.32,1.24-.45s.89-.28,1.35-.4a18.57,18.57,0,0,1,4.24-.52l5.2,0,6.4-.06a50.13,50.13,0,0,0,1.11-9.69,29.73,29.73,0,0,0-1.78-11.31l-9.82.1H60.18a42.36,42.36,0,0,0-4.53.3,38.8,38.8,0,0,0-14.88,5c-.65.37-1.28.77-1.91,1.19A39.45,39.45,0,0,0,29,36.3a38.09,38.09,0,0,0-7.67,18c-.09.72-.17,1.45-.21,2.19A41.3,41.3,0,0,0,22.89,70.79Z"/><path class="cls-2" d="M81.77,50c9.08,0,29.53-.18,47.79-.38,12.65-.74,22.94-1.94,39.47-1.2a17.26,17.26,0,0,0,13.66-5.3,28.87,28.87,0,0,0,2.9-12.36c.26-10.15-4.16-16.73-8.45-17.77a5,5,0,0,1-.77-.25h0a1.89,1.89,0,0,0,.45.15c-.1,0-2.57-.62-11.85-.85-6.43-.17-34.08.14-56.29.38-11.49.13-21.39.24-27.61.28a39.19,39.19,0,0,1,4.09,19.16C85,39.24,83.83,45.32,81.77,50Z"/><path class="cls-3" d="M355.89,570.66c7.95-10.9,20-22.06,29.24-27.74-15.91-28.38-28.7-45.4-39-52a6,6,0,0,1-2.16-2.42c-15.88,1.18-33.68,1.86-52.15,2.18C314.52,506.85,340.46,536.56,355.89,570.66Z"/><path class="cls-2" d="M402.91,657.68a26.37,26.37,0,0,1,6.61-19.86c8.5-9.56,16.69-21.13,24.29-32.21,2-3,4.55-7.12,7.47-11.93,13.55-22.3,34.94-57.52,60.63-61.59-7-4.14-17.12-6.47-31.59-2.31-24,6.91-44.8,53.75-46.34,62.14a6,6,0,0,1-11.8-2.18c.47-2.59,2.69-9.12,6.4-17.27a14.4,14.4,0,0,0-5.6-2.21c-14.16,8.57-33.25,26.41-36.33,41C385.94,638.74,394.65,651.45,402.91,657.68Z"/><path class="cls-2" d="M405.67,560.69c-.64-3.54-2.48-7.37-7.6-10.43-1.48.06-6.91,1.93-16.38,10.14-12.86,11.15-22.06,24.34-22.27,29.21-.2,4.6,3,10,7.22,13.44C373.48,585.22,393.41,568.47,405.67,560.69Z"/><path class="cls-4" d="M517.48,553.57c-1.25-5.6-3.88-8.7-5.81-9.22a18.24,18.24,0,0,0-4.73-.62c-21.29,0-43.22,36.13-55.4,56.18-3,5-5.61,9.24-7.84,12.48-7.81,11.41-16.27,23.35-25.21,33.4a14,14,0,0,0-2.86,14,8.33,8.33,0,0,0,7.48,5.45c17.17,1.57,36.05-10.75,49.28-32.14a6.29,6.29,0,0,1,1.24-1.43C511.66,599.7,521.22,570.36,517.48,553.57Z"/><path d="M529.19,551a32.39,32.39,0,0,0-3.07-8.39C521,529.48,502.28,508.1,467,518.25c-15.23,4.38-28.06,18.93-37.48,33.87-2.13-14.37-6.79-27.66-13.71-38.65-6.27-10-13.95-17.33-22.48-21.84a78.32,78.32,0,0,0-1.25-10.25c22.74-6.88,36.76-21,41.71-42.17,4.53-19.36.76-41.31-2.27-58.95-.62-3.64-1.21-7.08-1.7-10.29C415.89,277.69,394.16,216.05,376,177.55c1.82-8.6.31-19-4.54-31.54a104.24,104.24,0,0,0-15.94-27.43c-14.77-18.28-33.62-28-54.53-28.2h0C289,90.08,275.83,90,262,90l-8.68-30.7c-3.09-14.86-8.85-27.44-16.66-36.4C227.58,12.52,216,7,203.08,7h-.36l-13.11.13a19.69,19.69,0,0,0-9.08-5.65C178.35.74,173.22.25,165.26.05c-6.65-.17-33.25.13-56.72.38-16,.18-31.15.35-33.61.29A39.84,39.84,0,0,0,62.14,2.49a17.71,17.71,0,0,0-9,6.17,3.15,3.15,0,0,0-.22.29A50.8,50.8,0,0,0,19.35,29.16c-10.19,13.79-12.8,28.5-8,45,2.08,7.11,13.8,38.27,25.26,68.32-.16,12,1.76,29.2,4.38,52.6C46.2,241.23,54,311,51.28,399.79c-.87,28.31,6.4,51.45,21,66.93a65.13,65.13,0,0,0,33.28,18.79c-.17,9.23-3.61,18.56-10.24,27.89-9.72-10.9-21.63-17-34.4-17.28-16.16-.4-31.43,8.42-43,24.85C7,536.66.6,557.62,0,580s4.76,43.6,15,59.82c10.7,17,25.5,26.57,41.67,27h1.07c15.77,0,30.62-8.79,41.9-24.86a84.08,84.08,0,0,0,4.9-7.92,76.16,76.16,0,0,0,14.18,20.75c20.87,20.84,38.63,21.33,54.34,21.33h2.37c12.66,0,43.12-1.75,52.73-18,2.73-4.61,4.78-12.29-.93-22.71s-14.34-16.88-25.7-19.32a52,52,0,0,0-14.3-.93c-.92-.72-1.84-1.5-2.71-2.28,5.76-2.77,10.11-8,12.18-15.06a5.94,5.94,0,0,0-.69-4.87c.5-.21,1-.43,1.5-.68,31.26-15.94,51.82-39.48,56.41-64.58a52.73,52.73,0,0,0-6.41-36.76q7.66.06,15.37.06h5.26a5.81,5.81,0,0,0,1.55.91c14.58,5.86,33.4,21.76,49.85,42.55a118.91,118.91,0,0,0-6.34,35.94c-.56,22.36,4.76,43.61,15,59.83,10.7,17,25.5,26.56,41.67,27h1.06A42.72,42.72,0,0,0,384.14,655c9.61,13.32,19.77,18.37,31.06,20.5l.14,0a21.7,21.7,0,0,0,6.68,1.66c1.32.12,2.64.18,4,.18,20.3,0,41.42-13.89,56.09-37.13C534.36,595.94,531.37,560.73,529.19,551Zm-56.8,82.17c-13.23,21.39-32.11,33.71-49.28,32.14a8.33,8.33,0,0,1-7.48-5.45,14,14,0,0,1,2.86-14c8.94-10,17.4-22,25.21-33.4,2.23-3.24,4.83-7.52,7.84-12.48,12.18-20,34.11-56.18,55.4-56.18a18.24,18.24,0,0,1,4.73.62c1.93.52,4.56,3.62,5.81,9.22,3.74,16.79-5.82,46.13-43.85,78.13A6.29,6.29,0,0,0,472.39,633.13ZM325.21,570.66a110.67,110.67,0,0,1,3.25-24.15,187.89,187.89,0,0,1,20,37.48,18.79,18.79,0,0,0-1.05,5.09c-.48,11,7.65,22.81,18.29,27.32a189.5,189.5,0,0,0,11.83,28,30.06,30.06,0,0,1-7.38.77c-12-.3-23.33-7.89-31.82-21.37C329.38,609.55,324.71,590.68,325.21,570.66Zm-83.07-45.15c-3.85,21.08-22.57,42-50.06,56-4.77,2.42-10-1.61-12.74-4.24-7.2-7-9.88-16.23-9.15-18.48.53-.38,1.18-.82,1.94-1.33,9-6.12,30.19-20.44,29.58-40.61-.29-9.47-5.4-18.56-15.22-27.15,14.36.41,30.06.78,46.25,1A40.75,40.75,0,0,1,242.14,525.51ZM216.72,641.16c3.63,6.61,1.75,9.78,1.14,10.83-4.29,7.23-21.33,12.09-42.41,12.09h-1.21c-15.69,0-29.15,0-47-17.82-6.38-6.37-12-16.1-15.94-27.43a119,119,0,0,0,6.33-35.92c.11-4.2,0-8.35-.3-12.45,3.68-3.44,7.85-5.71,12.86-5.71a18,18,0,0,1,2.5.2A52.3,52.3,0,0,0,142.45,597c6.7,9.24,16.16,15.64,25.94,17.55.58.12,1.16.21,1.74.29a30.86,30.86,0,0,0,2.29,2.89c-9.12,2.55-16.19,6.22-18.51,8a6,6,0,1,0,7.22,9.59c2.74-2.07,22.08-10.91,37.9-7.51A25.29,25.29,0,0,1,216.72,641.16ZM57,654.77c-12-.3-23.33-7.88-31.82-21.36-9-14.25-13.63-33.12-13.13-53.14s6.1-38.63,15.77-52.41c9-12.76,20.34-19.76,32.11-19.76h.74c12,.3,23.33,7.89,31.82,21.37,9,14.24,13.64,33.11,13.14,53.13S99.51,621.25,89.84,635C80.69,648.06,69,655.06,57,654.77ZM164.87,489.06a5.65,5.65,0,0,0,.69.48c15.75,9.34,23.88,18.66,24.15,27.72.41,13.57-16.91,25.3-24.31,30.31l-.34.24c-.42-.23-.83-.43-1.25-.61a24.79,24.79,0,0,0-20.37.36,21.41,21.41,0,0,0-7.39,5.77,27.76,27.76,0,0,0-20.54,3.55c-.25-1.29-.52-2.58-.81-3.85,23-20.78,32.94-47.37,34.88-64.52Zm5.82,113.73c-11.78-2.3-28-16.93-25.84-41.11a8.24,8.24,0,0,1,3.79-3.31,12.72,12.72,0,0,1,9.56-.45c-.58,5.25,1.25,11.85,5.5,18.83,5.17,8.5,13.07,15.67,21.65,17.28a4.11,4.11,0,0,0-.15.42C182.52,603.65,175,603.63,170.69,602.79ZM130,487.76l5.9.23,1.63.06c-1.74,13.53-9.58,34.54-26.67,52a90.11,90.11,0,0,0-8-16.6c9.14-11.76,14.08-23.8,14.71-36C121.81,487.76,126,487.82,130,487.76Zm112.44-8.94a4.93,4.93,0,0,0-.87-.09c-44.27-1.11-68.74-24.41-74.82-71.23-2.11-16.25-3.9-31.83-5.63-46.89-4.33-37.71-8.42-73.31-16.34-107.42-8-34.68-17.61-64.52-27.65-86.31-11.72-25.41-23.44-39-35.83-41.52-6.34-1.3-15.85-.16-25.14,12.57a6,6,0,0,0,9.7,7.07c6.69-9.18,11.47-8.21,13-7.88C92.85,140,115,177.78,133.12,255.9c7.76,33.44,11.82,68.72,16.11,106.08,1.73,15.11,3.53,30.73,5.65,47.06,3.67,28.3,14,49.6,30.66,63.3a70.13,70.13,0,0,0,7.83,5.57c-23.71-.63-44-1.41-57-1.91-7-.27-12-.47-14.84-.54-16.38-.4-30.39-6.28-40.51-17-12.4-13.11-18.54-33.27-17.77-58.32C66,310.48,58.16,240.23,53,193.74c-3.46-30.86-6-53.16-3.09-61.44,7.18-20.66,18.4-23,29.27-23.61,19.14-1.09,28.1,14.45,41.08,39.91,14.16,27.78,31.79,62.35,77.4,63.49,10.31.26,20.5.38,30.46.38,44.44,0,84.32-2.51,110.3-7.1,14.05-2.48,24.06-7,30.39-13.85l.26-.27v0C387.91,233.66,406,292.7,418,371.76c.5,3.33,1.1,6.83,1.74,10.53,6,34.87,13.43,78.28-37.82,89.34C352.07,478.07,295.39,479.31,242.47,478.82ZM56.52,67c-1.81-4.76-1.55-9.71-.89-11.17a6.44,6.44,0,0,1,1.07-1.08,17.4,17.4,0,0,0,7,5c2.79,1.61,7.44,2.09,14.32,2.26,1.35,0,3.52,0,6.33,0,11,0,31.64-.23,50.32-.43,16.05-.18,31.21-.35,33.68-.28A44,44,0,0,0,180,59.77a14.82,14.82,0,0,0,3.27-1,6.44,6.44,0,0,0,.65-.3,19.82,19.82,0,0,0,7.28-6.35l11.9-.11h0a6.21,6.21,0,0,1,6.22,5.26c.07.41.16.82.27,1.22l8.95,32.11c-52.36,1.16-106.78,3.78-140.19,6.1a55.53,55.53,0,0,0-11,1.61C62.11,82.76,57.79,70.3,56.52,67ZM81.06,12.71c6.22,0,16.12-.15,27.61-.28,22.21-.24,49.86-.55,56.29-.38,9.28.23,11.75.82,11.85.85a1.89,1.89,0,0,1-.45-.15h0a5,5,0,0,0,.77.25c4.29,1,8.71,7.62,8.45,17.77a28.87,28.87,0,0,1-2.9,12.36A17.26,17.26,0,0,1,169,48.42c-16.53-.74-26.82.46-39.47,1.2-18.26.2-38.71.42-47.79.38,2.06-4.68,3.2-10.76,3.38-18.13A39.19,39.19,0,0,0,81.06,12.71ZM360.18,150.12l.06.16c5.19,13.39,5.9,23.13,2.16,29.77s-12.47,11.09-26.11,13.5c-31.07,5.49-82.8,7.94-138.38,6.54-38.47-1-53-29.42-67-56.94-6.75-13.23-13.61-26.7-23.26-35.72,51.86-2,155.33-5.29,193.13-5.06C342.63,102.63,360,149.66,360.18,150.12Zm6.46,452.93c-4.26-3.4-7.42-8.84-7.22-13.44.21-4.87,9.41-18.06,22.27-29.21,9.47-8.21,14.9-10.08,16.38-10.14,5.12,3.06,7,6.89,7.6,10.43C393.41,568.47,373.48,585.22,366.64,603.05Zm51.66-43.82-.76-.21c-1.4-8.39-6-14.89-13.84-19.37a11.37,11.37,0,0,0-7.36-1.27q-4-7.1-7.64-13.27a99.38,99.38,0,0,0,4.22-19.54,53.55,53.55,0,0,1,12.74,14.3C412.54,530.79,416.87,544.43,418.3,559.23ZM380,511.18c-7-10.49-13.33-18.34-19.33-24a1.05,1.05,0,0,0-.05-.19c7.29-.8,13.95-1.75,19.84-2.87A71.71,71.71,0,0,1,380,511.18Zm-36-22.64A6,6,0,0,0,346.1,491c10.33,6.56,23.12,23.58,39,52-9.26,5.68-21.29,16.84-29.24,27.74-15.43-34.1-41.37-63.81-64.1-79.94C310.26,490.4,328.06,489.72,343.94,488.54Zm32.71,122.71c3.08-14.58,22.17-32.42,36.33-41a14.4,14.4,0,0,1,5.6,2.21c-3.71,8.15-5.93,14.68-6.4,17.27a6,6,0,0,0,11.8,2.18c1.54-8.39,22.32-55.23,46.34-62.14,14.47-4.16,24.64-1.83,31.59,2.31-25.69,4.07-47.08,39.29-60.63,61.59-2.92,4.81-5.44,9-7.47,11.93-7.6,11.08-15.79,22.65-24.29,32.21a26.37,26.37,0,0,0-6.61,19.86C394.65,651.45,385.94,638.74,376.65,611.25ZM202.81,19h.27l.79,0c.29,0,.59,0,.88,0s.6,0,.9.06l.87.08.89.12c.28,0,.56.07.84.12l.88.17.82.16.86.22c.27.07.55.13.81.21s.56.18.84.27.53.16.8.26.54.2.82.31l.78.3c.27.11.53.24.79.36s.52.22.77.35.52.26.78.4.5.25.75.39.51.3.76.45l.73.43.75.5c.23.15.47.3.7.47s.49.36.73.54.46.33.69.51l.7.58.67.55.69.63.65.59.67.67c.21.21.42.41.62.62s.44.47.65.71.41.44.61.67l.63.74c.19.24.39.47.59.71l.61.79.56.73c.2.27.39.55.59.83l.54.77.57.87.52.8c.19.31.37.62.55.93s.33.54.49.82.36.63.53,1,.32.57.47.86.34.66.5,1l.46.9.48,1c.15.3.29.6.43.9l.47,1.11.39.9.45,1.14c.12.31.25.62.37.94s.29.8.43,1.19.23.63.34.95.28.84.41,1.26.21.62.31.93.27.9.4,1.36c.09.3.19.59.27.9s.26.94.38,1.41c.09.3.17.6.25.9l.36,1.49c.07.3.15.59.21.88.19.8.36,1.61.53,2.43l7.89,27.93h0c-6.1.06-12.3.15-18.56.26l-9.78-35.09c-.09-.56-.21-1.1-.35-1.64,0-.14-.09-.27-.13-.41-.11-.39-.22-.78-.36-1.16-.07-.2-.16-.38-.24-.58s-.24-.62-.38-.92-.21-.41-.31-.61-.27-.55-.43-.82-.25-.4-.38-.6-.3-.51-.47-.75-.3-.38-.45-.58-.33-.46-.52-.68-.33-.36-.49-.54l-.57-.62c-.18-.18-.37-.34-.55-.5s-.4-.39-.61-.57l-.6-.46-.65-.5-.64-.41c-.23-.15-.46-.3-.7-.44s-.44-.24-.66-.35-.49-.27-.74-.39l-.7-.29-.77-.32c-.24-.09-.49-.16-.73-.23l-.81-.26-.75-.17c-.28-.06-.55-.13-.83-.18l-.78-.1c-.29,0-.57-.09-.86-.11l-.79,0c-.27,0-.53,0-.8,0H203l-6.56.06a44.78,44.78,0,0,0,1.15-9,39.85,39.85,0,0,0-1.48-12h0ZM21.12,56.51c0-.74.12-1.47.21-2.19A38.09,38.09,0,0,1,29,36.3a39.45,39.45,0,0,1,9.86-9.41c.63-.42,1.26-.82,1.91-1.19a38.8,38.8,0,0,1,14.88-5,42.36,42.36,0,0,1,4.53-.3h1.38l9.82-.1h0a29.73,29.73,0,0,1,1.78,11.31,50.13,50.13,0,0,1-1.11,9.69l-6.4.06-5.2,0a18.57,18.57,0,0,0-4.24.52c-.46.12-.91.25-1.35.4s-.83.29-1.24.45c-.63.26-1.24.56-1.84.88l-.75.44c-.48.3-1,.61-1.41.95a18.62,18.62,0,0,0-3.74,3.78c-3.45,4.67-3.67,14.33-.58,22.44,1.26,3.3,5.67,16,11.12,31.89h0c-5.59,3.63-10.82,9.3-15,18.14h0c-9-23.73-16.94-45.05-18.53-50.47A41.3,41.3,0,0,1,21.12,56.51Z"/><path class="cls-5" d="M381.88,471.63c51.25-11.06,43.8-54.47,37.82-89.34-.64-3.7-1.24-7.2-1.74-10.53C406,292.7,387.91,233.66,369,191.28l-.27.24c-6.33,6.81-16.34,11.37-30.39,13.85-26,4.59-65.86,7.1-110.3,7.1-10,0-20.15-.12-30.46-.38C152,211,134.37,176.38,120.21,148.6c-13-25.46-21.94-41-41.08-39.91-10.87.62-22.09,3-29.27,23.61-2.87,8.28-.37,30.58,3.09,61.44C58.16,240.23,66,310.48,63.27,400.16c-.77,25,5.37,45.21,17.77,58.32,10.12,10.7,24.13,16.58,40.51,17,2.83.07,7.87.27,14.84.54,13,.5,33.27,1.28,57,1.91a70.13,70.13,0,0,1-7.83-5.57c-16.67-13.7-27-35-30.66-63.3-2.12-16.33-3.92-32-5.65-47.06-4.29-37.36-8.35-72.64-16.11-106.08C115,177.78,92.85,140,78.93,137.12c-1.57-.33-6.35-1.3-13,7.88a6,6,0,0,1-9.7-7.07c9.29-12.73,18.8-13.87,25.14-12.57,12.39,2.52,24.11,16.11,35.83,41.52,10,21.79,19.61,51.63,27.65,86.31,7.92,34.11,12,69.71,16.34,107.42,1.73,15.06,3.52,30.64,5.63,46.89,6.08,46.82,30.55,70.12,74.82,71.23a4.93,4.93,0,0,1,.87.09C295.39,479.31,352.07,478.07,381.88,471.63ZM297.66,260.54c5.73-7.12,13.5-11.35,21.88-11.93,20.5-1.39,39.6,17.21,42.56,41.5,3.48,28.51-7.21,48.16-27.89,51.26a32.15,32.15,0,0,1-4.6.34,35.45,35.45,0,0,1-21-7.3c-10.42-7.71-17.66-20.68-19.86-35.57C286.55,284.26,289.81,270.3,297.66,260.54Zm-90.13,44.22c-1.35-16.09,2.59-30.81,10.81-40.39a29.83,29.83,0,0,1,20.85-10.82c20.5-1.4,39.29,16.8,43.66,42.34,4.31,25.22-8.06,48.44-28.16,52.86a29.36,29.36,0,0,1-6.33.69,35.16,35.16,0,0,1-20.78-7.3C216.3,333.82,208.8,319.85,207.53,304.76ZM309.1,414q-3.93.38-7.73.37c-31.12,0-55.33-17.94-66.13-37a6,6,0,0,1,10.44-5.92c9.45,16.67,33,33.36,62.3,30.6,28.68-2.71,43.78-22.57,48.33-40.26a6,6,0,0,1,11.62,3C360.93,391.94,337.84,411.25,309.1,414Z"/><path class="cls-2" d="M369,191.25l-.26.27.27-.24Z"/><path class="cls-6" d="M252.11,337c13.83-3,22.13-20.23,18.91-39.12-3.16-18.51-16-32.43-29.64-32.43-.46,0-.91,0-1.36,0a17.85,17.85,0,0,0-12.57,6.67c-6.06,7.05-9,18.85-8,31.56,1,11.69,6.67,22.43,15.21,28.73C240.35,336.64,246.54,338.26,252.11,337ZM230.7,305.6c-.94-13.42,5.27-24.78,13.88-25.38s16.33,9.79,17.26,23.21S256.56,328.2,248,328.8,231.63,319,230.7,305.6Z"/><path d="M254.69,348.75c20.1-4.42,32.47-27.64,28.16-52.86-4.37-25.54-23.16-43.74-43.66-42.34a29.83,29.83,0,0,0-20.85,10.82c-8.22,9.58-12.16,24.3-10.81,40.39,1.27,15.09,8.77,29.06,20.05,37.38a35.16,35.16,0,0,0,20.78,7.3A29.36,29.36,0,0,0,254.69,348.75Zm-35.2-45c-1.07-12.71,1.9-24.51,8-31.56A17.85,17.85,0,0,1,240,265.52c.45,0,.9,0,1.36,0,13.62,0,26.48,13.92,29.64,32.43,3.22,18.89-5.08,36.08-18.91,39.12-5.57,1.23-11.76-.39-17.41-4.55C226.16,326.18,220.47,315.44,219.49,303.75Z"/><path class="cls-6" d="M300.58,297.08c1.74,11.77,7.25,21.86,15.13,27.69,5.24,3.88,11.18,5.55,16.72,4.73,13.76-2.06,20.4-16.25,17.76-37.94-2.31-18.94-16.38-31-28.59-31-.42,0-.83,0-1.24,0-5.08.35-9.69,2.93-13.35,7.47C301.25,275.22,298.91,285.8,300.58,297.08Zm20.55-23.14c8.6-.6,16.33,9.79,17.26,23.21s-5.27,24.77-13.88,25.37-16.33-9.79-17.26-23.2S312.52,274.54,321.13,273.94Z"/><path d="M308.57,334.41a35.45,35.45,0,0,0,21,7.3,32.15,32.15,0,0,0,4.6-.34c20.68-3.1,31.37-22.75,27.89-51.26-3-24.29-22.06-42.89-42.56-41.5-8.38.58-16.15,4.81-21.88,11.93-7.85,9.76-11.11,23.72-9,38.3C290.91,313.73,298.15,326.7,308.57,334.41Zm11.79-73.82c.41,0,.82,0,1.24,0,12.21,0,26.28,12.08,28.59,31,2.64,21.69-4,35.88-17.76,37.94-5.54.82-11.48-.85-16.72-4.73-7.88-5.83-13.39-15.92-15.13-27.69-1.67-11.28.67-21.86,6.43-29C310.67,263.52,315.28,260.94,320.36,260.59Z"/><path d="M261.84,303.43c-.93-13.42-8.66-23.81-17.26-23.21s-14.82,12-13.88,25.38,8.66,23.8,17.26,23.2S262.78,316.84,261.84,303.43Z"/><ellipse cx="322.82" cy="298.23" rx="15.61" ry="24.35" transform="translate(-19.96 23.17) rotate(-3.99)"/><path d="M363.62,357.45a6,6,0,0,0-7.31,4.31C351.76,379.45,336.66,399.31,308,402c-29.33,2.76-52.85-13.93-62.3-30.6a6,6,0,0,0-10.44,5.92c10.8,19.05,35,37,66.13,37q3.79,0,7.73-.37c28.74-2.71,51.83-22,58.83-49.2A6,6,0,0,0,363.62,357.45Z"/><path class="cls-4" d="M105.62,582.61c.5-20-4.17-38.89-13.14-53.13C84,516,72.69,508.41,60.66,508.11h-.74c-11.77,0-23.14,7-32.11,19.76C18.14,541.64,12.54,560.25,12,580.27s4.16,38.89,13.13,53.14C33.66,646.89,45,654.47,57,654.77s23.7-6.71,32.85-19.75C99.51,621.25,105.12,602.63,105.62,582.61Zm-18.31-3c-.31,12.39-3.65,24-9.39,32.82-6.19,9.45-14.48,14.63-23.4,14.63h-.58c-9.15-.23-17.39-5.84-23.22-15.8-5.3-9-8-20.86-7.74-33.25s3.64-24,9.39-32.81c6.32-9.66,14.81-14.87,24-14.63s17.39,5.84,23.22,15.81C84.87,555.45,87.62,567.26,87.31,579.64Z"/><path class="cls-6" d="M69.21,552.46c-2.11-3.62-6.64-9.71-13.16-9.87h-.27c-6.39,0-11.11,5.74-13.37,9.2-4.54,6.93-7.18,16.36-7.43,26.54s1.91,19.73,6.09,26.89c2.12,3.61,6.64,9.7,13.17,9.86h.26c6.39,0,11.12-5.75,13.38-9.2,4.54-6.94,7.18-16.37,7.43-26.55S73.4,559.61,69.21,552.46Zm-18.6,41.21c-5.67-.14-10.09-7.69-9.86-16.85s5-16.48,10.69-16.34,10.09,7.68,9.87,16.85S56.29,593.81,50.61,593.67Z"/><path d="M56.35,530.59c-9.17-.24-17.66,5-24,14.63C26.62,554,23.29,565.65,23,578s2.44,24.2,7.74,33.25c5.83,10,14.07,15.57,23.22,15.8h.58c8.92,0,17.21-5.18,23.4-14.63,5.74-8.78,9.08-20.43,9.39-32.82s-2.44-24.19-7.74-33.24C73.74,536.43,65.49,530.82,56.35,530.59Zm-1.85,84.5h-.26c-6.53-.16-11.05-6.25-13.17-9.86-4.18-7.16-6.35-16.7-6.09-26.89s2.89-19.61,7.43-26.54c2.26-3.46,7-9.2,13.37-9.2h.27c6.52.16,11,6.25,13.16,9.87,4.19,7.15,6.35,16.7,6.1,26.88S72.42,599,67.88,605.89C65.62,609.34,60.89,615.09,54.5,615.09Z"/><path d="M51.44,560.48c-5.67-.14-10.46,7.17-10.69,16.34s4.19,16.71,9.86,16.85,10.47-7.18,10.7-16.34S57.12,560.62,51.44,560.48Z"/><path class="cls-2" d="M300.77,102.37c-37.8-.23-141.27,3.06-193.13,5.06,9.65,9,16.51,22.49,23.26,35.72,14,27.52,28.54,56,67,56.94,55.58,1.4,107.31-1.05,138.38-6.54,13.64-2.41,22.42-7,26.11-13.5s3-16.38-2.16-29.77l-.06-.16C360,149.66,342.63,102.63,300.77,102.37Z"/></g></g></svg>