<?xml version="1.0" encoding="UTF-8" standalone="no"?>
<svg xmlns:dc="http://purl.org/dc/elements/1.1/" xmlns:cc="http://creativecommons.org/ns#" xmlns:rdf="http://www.w3.org/1999/02/22-rdf-syntax-ns#" xmlns:svg="http://www.w3.org/2000/svg" xmlns="http://www.w3.org/2000/svg" id="svg8" version="1.1" viewBox="0 0 58.208332 12.921484" height="48.837105" width="220">
  <defs id="defs2">
    <clipPath clipPathUnits="userSpaceOnUse" id="clipPath831">
      <path d="m 0,180.736 h 45.837 v 0.001 H 0 Z" id="path829"/>
    </clipPath>
    <clipPath clipPathUnits="userSpaceOnUse" id="clipPath845">
      <path d="m 0,257.507 v -76.77 h 45.837 l 0.438,76.77 z" id="path843"/>
    </clipPath>
    <clipPath clipPathUnits="userSpaceOnUse" id="clipPath857">
      <path d="M 0,841.89 V 429.246 h 47.257 l 2.358,412.644 z" id="path855"/>
    </clipPath>
    <clipPath clipPathUnits="userSpaceOnUse" id="clipPath869">
      <path d="M 0,429.56 V 257.507 h 46.275 l 0.984,172.053 z" id="path867"/>
    </clipPath>
    <clipPath clipPathUnits="userSpaceOnUse" id="clipPath881">
      <path d="m 45.837,180.736 -0.003,-0.513 H 595.28 v 0.513 z" id="path879"/>
    </clipPath>
    <clipPath clipPathUnits="userSpaceOnUse" id="clipPath893">
      <path d="M 45.837,180.736 H 595.28 v 0.001 H 45.837 Z" id="path891"/>
    </clipPath>
    <clipPath clipPathUnits="userSpaceOnUse" id="clipPath905">
      <path d="m 46.275,257.507 -0.147,-25.75 H 60.04 v 14.573 h 240.48 v -14.573 h 294.76 v 25.75 z" id="path903"/>
    </clipPath>
    <clipPath clipPathUnits="userSpaceOnUse" id="clipPath917">
      <path d="m 46.13,232.071 -0.293,-51.334 h 34.349 v 1.033 H 60.04 v 50.301 z" id="path915"/>
    </clipPath>
    <clipPath clipPathUnits="userSpaceOnUse" id="clipPath929">
      <path d="M 300.52,232.071 V 181.77 h -14.503 v -1.033 H 595.28 v 51.334 z" id="path927"/>
    </clipPath>
    <clipPath clipPathUnits="userSpaceOnUse" id="clipPath941">
      <path d="m 79.871,180.737 h 206.462 v 1.033 H 79.871 Z" id="path939"/>
    </clipPath>
    <clipPath clipPathUnits="userSpaceOnUse" id="clipPath953">
      <path d="M 49.615,841.89 48.83,704.443 H 183.575 V 841.89 Z" id="path951"/>
    </clipPath>
    <clipPath clipPathUnits="userSpaceOnUse" id="clipPath965">
      <path d="M 183.26,704.443 H 321.006 V 841.889 H 183.26 Z" id="path963"/>
    </clipPath>
    <clipPath clipPathUnits="userSpaceOnUse" id="clipPath977">
      <path d="M 320.691,841.89 V 704.443 h 105.975 c -0.391,2.846 -0.593,5.754 -0.593,8.707 v 0 c 0,23.667 12.978,44.303 32.206,55.179 v 0 73.561 z" id="path975"/>
    </clipPath>
    <clipPath clipPathUnits="userSpaceOnUse" id="clipPath989">
      <path d="m 457.964,841.89 v -73.74 c 9.27,5.314 20.009,8.351 31.46,8.351 v 0 c 25.847,0 48.081,-15.483 57.932,-37.678 v 0 H 595.28 V 841.89 Z" id="path987"/>
    </clipPath>
    <clipPath clipPathUnits="userSpaceOnUse" id="clipPath1001">
      <path d="m 547.216,739.138 c 3.572,-7.93 5.559,-16.726 5.559,-25.988 v 0 c 0,-21.133 -10.349,-39.849 -26.253,-51.358 v 0 -198.166 h 68.758 v 275.512 z" id="path999"/>
    </clipPath>
    <clipPath clipPathUnits="userSpaceOnUse" id="clipPath1013">
      <path d="M 48.831,704.758 48.043,566.766 h 135.532 v 137.992 z" id="path1011"/>
    </clipPath>
    <clipPath clipPathUnits="userSpaceOnUse" id="clipPath1029">
      <path d="M 320.691,704.758 V 566.766 h 137.588 v 91.205 c -16.917,9.568 -28.996,26.69 -31.655,46.787 v 0 z m 134.616,-109.44 c -0.146,0.132 -0.158,0.358 -0.026,0.505 v 0 c 0.302,0.333 0.624,0.693 0.968,1.081 v 0 c 0.07,0.08 0.169,0.121 0.268,0.121 v 0 c 0.085,0 0.169,-0.03 0.237,-0.09 v 0 c 0.148,-0.132 0.162,-0.358 0.03,-0.506 v 0 c -0.345,-0.39 -0.668,-0.751 -0.972,-1.086 v 0 c -0.07,-0.079 -0.167,-0.118 -0.265,-0.118 v 0 c -0.086,0 -0.171,0.03 -0.24,0.093 m -3.527,-3.645 c -0.133,0.145 -0.123,0.371 0.023,0.505 v 0 l 0.119,0.113 c 0.083,0.079 0.209,0.201 0.381,0.372 v 0 c 0.069,0.069 0.161,0.104 0.252,0.104 v 0 c 0.092,0 0.184,-0.035 0.254,-0.105 v 0 c 0.139,-0.141 0.139,-0.368 -0.001,-0.507 v 0 c -0.349,-0.347 -0.518,-0.501 -0.522,-0.505 v 0 c -0.068,-0.063 -0.156,-0.094 -0.241,-0.094 v 0 c -0.097,0 -0.195,0.039 -0.265,0.117" id="path1027"/>
    </clipPath>
    <clipPath clipPathUnits="userSpaceOnUse" id="clipPath1041">
      <path d="m 489.424,649.799 c -11.451,0 -22.19,3.037 -31.46,8.351 v 0 -263.441 h 68.873 v 267.312 c -10.484,-7.683 -23.42,-12.222 -37.413,-12.222 m 4.878,-3.729 c -0.161,0.115 -0.198,0.339 -0.084,0.5 v 0 c 0.138,0.194 0.275,0.39 0.415,0.586 v 0 c 0.069,0.099 0.18,0.152 0.292,0.152 v 0 c 0.071,0 0.143,-0.022 0.206,-0.066 v 0 c 0.162,-0.114 0.2,-0.337 0.086,-0.499 v 0 c -0.139,-0.196 -0.276,-0.392 -0.415,-0.587 v 0 c -0.07,-0.099 -0.18,-0.151 -0.293,-0.151 v 0 c -0.072,0 -0.143,0.021 -0.207,0.065 m -3.385,-4.763 c -0.161,0.114 -0.198,0.338 -0.083,0.498 v 0 c 0.279,0.393 0.561,0.788 0.844,1.186 v 0 c 0.069,0.097 0.18,0.15 0.292,0.15 v 0 c 0.072,0 0.145,-0.022 0.208,-0.067 v 0 c 0.16,-0.114 0.198,-0.338 0.083,-0.499 v 0 c -0.283,-0.398 -0.565,-0.793 -0.845,-1.186 v 0 c -0.07,-0.097 -0.18,-0.149 -0.291,-0.149 v 0 c -0.072,0 -0.145,0.022 -0.208,0.067 m -3.394,-4.728 c -0.16,0.115 -0.196,0.339 -0.081,0.499 v 0 c 0.282,0.391 0.565,0.784 0.85,1.181 v 0 c 0.07,0.098 0.179,0.149 0.291,0.149 v 0 c 0.072,0 0.146,-0.022 0.209,-0.068 v 0 c 0.16,-0.115 0.197,-0.339 0.082,-0.499 v 0 c -0.287,-0.397 -0.57,-0.79 -0.852,-1.181 v 0 c -0.069,-0.097 -0.179,-0.149 -0.29,-0.149 v 0 c -0.072,0 -0.145,0.022 -0.209,0.068 m -3.418,-4.71 c -0.161,0.117 -0.196,0.34 -0.079,0.501 v 0 c 0.284,0.388 0.569,0.78 0.856,1.175 v 0 c 0.07,0.096 0.179,0.148 0.29,0.148 v 0 c 0.073,0 0.147,-0.023 0.211,-0.069 v 0 c 0.16,-0.117 0.195,-0.34 0.079,-0.5 v 0 c -0.288,-0.396 -0.574,-0.788 -0.857,-1.176 v 0 c -0.07,-0.097 -0.179,-0.147 -0.29,-0.147 v 0 c -0.073,0 -0.147,0.022 -0.21,0.068 m -3.446,-4.69 c -0.159,0.118 -0.193,0.342 -0.075,0.502 v 0 c 0.285,0.386 0.573,0.775 0.863,1.17 v 0 c 0.07,0.095 0.179,0.145 0.289,0.145 v 0 c 0.074,0 0.147,-0.022 0.211,-0.07 v 0 c 0.16,-0.117 0.194,-0.341 0.077,-0.5 v 0 c -0.291,-0.394 -0.579,-0.785 -0.864,-1.171 v 0 c -0.07,-0.095 -0.179,-0.146 -0.289,-0.146 v 0 c -0.074,0 -0.149,0.024 -0.212,0.07 m -3.476,-4.667 c -0.158,0.119 -0.19,0.343 -0.071,0.501 v 0 c 0.287,0.385 0.577,0.772 0.87,1.165 v 0 c 0.071,0.094 0.178,0.144 0.288,0.144 v 0 c 0.074,0 0.149,-0.024 0.213,-0.071 v 0 c 0.159,-0.119 0.191,-0.343 0.073,-0.501 v 0 c -0.293,-0.394 -0.584,-0.782 -0.872,-1.166 v 0 c -0.07,-0.094 -0.177,-0.143 -0.286,-0.143 v 0 c -0.075,0 -0.151,0.023 -0.215,0.071 m -3.51,-4.641 c -0.158,0.119 -0.188,0.344 -0.068,0.502 v 0 c 0.29,0.381 0.583,0.766 0.88,1.157 v 0 c 0.071,0.093 0.177,0.142 0.286,0.142 v 0 c 0.074,0 0.151,-0.024 0.216,-0.072 v 0 c 0.157,-0.12 0.188,-0.345 0.068,-0.503 v 0 c -0.297,-0.391 -0.59,-0.777 -0.88,-1.158 v 0 c -0.071,-0.093 -0.177,-0.141 -0.285,-0.141 v 0 c -0.076,0 -0.153,0.023 -0.217,0.073 m -3.551,-4.611 c -0.156,0.121 -0.183,0.347 -0.063,0.502 v 0 c 0.294,0.377 0.59,0.761 0.89,1.149 v 0 c 0.071,0.092 0.177,0.14 0.284,0.14 v 0 c 0.076,0 0.154,-0.024 0.219,-0.075 v 0 c 0.156,-0.12 0.185,-0.345 0.064,-0.502 v 0 c -0.301,-0.39 -0.598,-0.773 -0.891,-1.151 v 0 c -0.071,-0.091 -0.176,-0.139 -0.283,-0.139 v 0 c -0.077,0 -0.154,0.026 -0.22,0.076 m -3.596,-4.575 c -0.155,0.124 -0.181,0.349 -0.058,0.503 v 0 c 0.296,0.373 0.597,0.753 0.903,1.14 v 0 c 0.07,0.09 0.175,0.137 0.281,0.137 v 0 c 0.077,0 0.155,-0.026 0.221,-0.078 v 0 c 0.156,-0.122 0.182,-0.347 0.059,-0.503 v 0 c -0.306,-0.388 -0.607,-0.768 -0.903,-1.141 v 0 c -0.071,-0.089 -0.176,-0.135 -0.281,-0.135 v 0 c -0.078,0 -0.157,0.025 -0.222,0.077 m -3.655,-4.528 c -0.152,0.125 -0.176,0.351 -0.051,0.504 v 0 c 0.3,0.366 0.606,0.742 0.918,1.127 v 0 c 0.072,0.087 0.175,0.132 0.279,0.132 v 0 c 0.079,0 0.159,-0.026 0.225,-0.08 v 0 c 0.154,-0.125 0.177,-0.35 0.053,-0.503 v 0 c -0.313,-0.387 -0.62,-0.763 -0.92,-1.129 v 0 c -0.07,-0.087 -0.174,-0.132 -0.277,-0.132 v 0 c -0.08,0 -0.161,0.027 -0.227,0.081 m -3.728,-4.466 c -0.151,0.128 -0.169,0.353 -0.041,0.505 v 0 c 0.302,0.355 0.614,0.725 0.937,1.108 v 0 c 0.072,0.085 0.172,0.128 0.275,0.128 v 0 c 0.081,0 0.163,-0.027 0.229,-0.083 v 0 c 0.153,-0.127 0.172,-0.353 0.045,-0.505 v 0 c -0.324,-0.385 -0.638,-0.755 -0.941,-1.112 v 0 c -0.07,-0.084 -0.171,-0.127 -0.273,-0.127 v 0 c -0.081,0 -0.164,0.029 -0.231,0.086" id="path1039"/>
    </clipPath>
    <clipPath clipPathUnits="userSpaceOnUse" id="clipPath1053">
      <path d="M 48.045,567.08 47.257,429.246 H 183.575 V 567.08 Z" id="path1051"/>
    </clipPath>
    <clipPath clipPathUnits="userSpaceOnUse" id="clipPath1069">
      <path d="M 320.691,429.246 H 458.279 V 567.08 H 320.691 Z" id="path1067"/>
    </clipPath>
    <clipPath clipPathUnits="userSpaceOnUse" id="clipPath1081">
      <path d="M 526.522,257.507 H 595.28 V 463.94 h -68.758 z" id="path1079"/>
    </clipPath>
    <clipPath clipPathUnits="userSpaceOnUse" id="clipPath1093">
      <path d="M 47.259,429.56 46.47,291.569 H 183.575 V 429.56 Z" id="path1091"/>
    </clipPath>
    <clipPath clipPathUnits="userSpaceOnUse" id="clipPath1109">
      <path d="M 320.691,291.569 H 458.279 V 429.56 H 320.691 Z" id="path1107"/>
    </clipPath>
    <clipPath clipPathUnits="userSpaceOnUse" id="clipPath1121">
      <path d="m 457.964,257.507 h 68.873 v 137.516 h -68.873 z" id="path1119"/>
    </clipPath>
    <clipPath clipPathUnits="userSpaceOnUse" id="clipPath1133">
      <path d="m 46.472,291.883 -0.197,-34.376 h 412.004 v 34.376 z" id="path1131"/>
    </clipPath>
    <clipPath clipPathUnits="userSpaceOnUse" id="clipPath1155">
      <path d="m 60.04,181.77 h 240.48 v 64.56 H 60.04 Z" id="path1153"/>
    </clipPath>
    <clipPath clipPathUnits="userSpaceOnUse" id="clipPath1181">
      <path d="m 452.303,592.663 c -0.172,-0.171 -0.298,-0.293 -0.381,-0.372 v 0 l -0.119,-0.113 c -0.146,-0.134 -0.156,-0.36 -0.023,-0.505 v 0 c 0.07,-0.078 0.168,-0.117 0.265,-0.117 v 0 c 0.085,0 0.173,0.031 0.241,0.094 v 0 c 0.004,0.004 0.173,0.158 0.522,0.505 v 0 c 0.14,0.139 0.14,0.366 0.001,0.507 v 0 c -0.07,0.07 -0.162,0.105 -0.254,0.105 v 0 c -0.091,0 -0.183,-0.035 -0.252,-0.104" id="path1179"/>
    </clipPath>
    <clipPath clipPathUnits="userSpaceOnUse" id="clipPath1193">
      <path d="m 491.678,642.991 c -0.283,-0.398 -0.565,-0.793 -0.844,-1.186 v 0 c -0.115,-0.16 -0.078,-0.384 0.083,-0.498 v 0 c 0.063,-0.045 0.136,-0.067 0.208,-0.067 v 0 c 0.111,0 0.221,0.052 0.291,0.149 v 0 c 0.28,0.393 0.562,0.788 0.845,1.186 v 0 c 0.115,0.161 0.077,0.385 -0.083,0.499 v 0 c -0.063,0.045 -0.136,0.067 -0.208,0.067 v 0 c -0.112,0 -0.223,-0.053 -0.292,-0.15 m -3.386,-4.732 c -0.285,-0.397 -0.568,-0.79 -0.85,-1.181 v 0 c -0.115,-0.16 -0.079,-0.384 0.081,-0.499 v 0 c 0.064,-0.046 0.137,-0.068 0.209,-0.068 v 0 c 0.111,0 0.221,0.052 0.29,0.149 v 0 c 0.282,0.391 0.565,0.784 0.852,1.181 v 0 c 0.115,0.16 0.078,0.384 -0.082,0.499 v 0 c -0.063,0.046 -0.137,0.068 -0.209,0.068 v 0 c -0.112,0 -0.221,-0.051 -0.291,-0.149 m -3.41,-4.714 c -0.287,-0.395 -0.572,-0.787 -0.856,-1.175 v 0 c -0.117,-0.161 -0.082,-0.384 0.079,-0.501 v 0 c 0.063,-0.046 0.137,-0.068 0.21,-0.068 v 0 c 0.111,0 0.22,0.05 0.29,0.147 v 0 c 0.283,0.388 0.569,0.78 0.857,1.176 v 0 c 0.116,0.16 0.081,0.383 -0.079,0.5 v 0 c -0.064,0.046 -0.138,0.069 -0.211,0.069 v 0 c -0.111,0 -0.22,-0.052 -0.29,-0.148 m -3.435,-4.694 c -0.29,-0.395 -0.578,-0.784 -0.863,-1.17 v 0 c -0.118,-0.16 -0.084,-0.384 0.075,-0.502 v 0 c 0.063,-0.046 0.138,-0.07 0.212,-0.07 v 0 c 0.11,0 0.219,0.051 0.289,0.146 v 0 c 0.285,0.386 0.573,0.777 0.864,1.171 v 0 c 0.117,0.159 0.083,0.383 -0.077,0.5 v 0 c -0.064,0.048 -0.137,0.07 -0.211,0.07 v 0 c -0.11,0 -0.219,-0.05 -0.289,-0.145 m -3.465,-4.673 c -0.293,-0.393 -0.583,-0.78 -0.87,-1.165 v 0 c -0.119,-0.158 -0.087,-0.382 0.071,-0.501 v 0 c 0.064,-0.048 0.14,-0.071 0.215,-0.071 v 0 c 0.109,0 0.216,0.049 0.286,0.143 v 0 c 0.288,0.384 0.579,0.772 0.872,1.166 v 0 c 0.118,0.158 0.086,0.382 -0.073,0.501 v 0 c -0.064,0.047 -0.139,0.071 -0.213,0.071 v 0 c -0.11,0 -0.217,-0.05 -0.288,-0.144 m -3.497,-4.648 c -0.297,-0.391 -0.59,-0.776 -0.88,-1.157 v 0 c -0.12,-0.158 -0.09,-0.383 0.068,-0.502 v 0 c 0.064,-0.05 0.141,-0.073 0.217,-0.073 v 0 c 0.108,0 0.214,0.048 0.285,0.141 v 0 c 0.29,0.381 0.583,0.767 0.88,1.158 v 0 c 0.12,0.158 0.089,0.383 -0.068,0.503 v 0 c -0.065,0.048 -0.142,0.072 -0.216,0.072 v 0 c -0.109,0 -0.215,-0.049 -0.286,-0.142 m -3.536,-4.619 c -0.3,-0.388 -0.596,-0.772 -0.89,-1.149 v 0 c -0.12,-0.155 -0.093,-0.381 0.063,-0.502 v 0 c 0.066,-0.05 0.143,-0.076 0.22,-0.076 v 0 c 0.107,0 0.212,0.048 0.283,0.139 v 0 c 0.293,0.378 0.59,0.761 0.891,1.151 v 0 c 0.121,0.157 0.092,0.382 -0.064,0.502 v 0 c -0.065,0.051 -0.143,0.075 -0.219,0.075 v 0 c -0.107,0 -0.213,-0.048 -0.284,-0.14 m -3.578,-4.583 c -0.306,-0.387 -0.607,-0.767 -0.903,-1.14 v 0 c -0.123,-0.154 -0.097,-0.379 0.058,-0.503 v 0 c 0.065,-0.052 0.144,-0.077 0.222,-0.077 v 0 c 0.105,0 0.21,0.046 0.281,0.135 v 0 c 0.296,0.373 0.597,0.753 0.903,1.141 v 0 c 0.123,0.156 0.097,0.381 -0.059,0.503 v 0 c -0.066,0.052 -0.144,0.078 -0.221,0.078 v 0 c -0.106,0 -0.211,-0.047 -0.281,-0.137 m -3.633,-4.54 c -0.312,-0.385 -0.618,-0.761 -0.918,-1.127 v 0 c -0.125,-0.153 -0.101,-0.379 0.051,-0.504 v 0 c 0.066,-0.054 0.147,-0.081 0.227,-0.081 v 0 c 0.103,0 0.207,0.045 0.277,0.132 v 0 c 0.3,0.366 0.607,0.742 0.92,1.129 v 0 c 0.124,0.153 0.101,0.378 -0.053,0.503 v 0 c -0.066,0.054 -0.146,0.08 -0.225,0.08 v 0 c -0.104,0 -0.207,-0.045 -0.279,-0.132 m -3.699,-4.484 c -0.323,-0.383 -0.635,-0.753 -0.937,-1.108 v 0 c -0.128,-0.152 -0.11,-0.377 0.041,-0.505 v 0 c 0.067,-0.057 0.15,-0.086 0.231,-0.086 v 0 c 0.102,0 0.203,0.043 0.273,0.127 v 0 c 0.303,0.357 0.617,0.727 0.941,1.112 v 0 c 0.127,0.152 0.108,0.378 -0.045,0.505 v 0 c -0.066,0.056 -0.148,0.083 -0.229,0.083 v 0 c -0.103,0 -0.203,-0.043 -0.275,-0.128 m -3.79,-4.4 c -0.344,-0.388 -0.666,-0.748 -0.968,-1.081 v 0 c -0.132,-0.147 -0.12,-0.373 0.026,-0.505 v 0 c 0.069,-0.063 0.154,-0.093 0.24,-0.093 v 0 c 0.098,0 0.195,0.039 0.265,0.118 v 0 c 0.304,0.335 0.627,0.696 0.972,1.086 v 0 c 0.132,0.148 0.118,0.374 -0.03,0.506 v 0 c -0.068,0.06 -0.152,0.09 -0.237,0.09 v 0 c -0.099,0 -0.198,-0.041 -0.268,-0.121" id="path1191"/>
    </clipPath>
    <clipPath clipPathUnits="userSpaceOnUse" id="clipPath1205">
      <path d="m 494.633,647.156 c -0.14,-0.196 -0.277,-0.392 -0.415,-0.586 v 0 c -0.114,-0.161 -0.077,-0.385 0.084,-0.5 v 0 c 0.064,-0.044 0.135,-0.065 0.207,-0.065 v 0 c 0.113,0 0.223,0.052 0.293,0.151 v 0 c 0.139,0.195 0.276,0.391 0.415,0.587 v 0 c 0.114,0.162 0.076,0.385 -0.086,0.499 v 0 c -0.063,0.044 -0.135,0.066 -0.206,0.066 v 0 c -0.112,0 -0.223,-0.053 -0.292,-0.152" id="path1203"/>
    </clipPath>
    <clipPath clipPathUnits="userSpaceOnUse" id="clipPath1217">
      <path d="M 0,841.89 H 595.28 V 0 H 0 Z" id="path1215"/>
    </clipPath>
    <clipPath clipPathUnits="userSpaceOnUse" id="clipPath1291">
      <path d="m 426.073,713.15 c 0,-34.988 28.363,-63.351 63.351,-63.351 v 0 c 34.987,0 63.351,28.363 63.351,63.351 v 0 c 0,34.988 -28.364,63.351 -63.351,63.351 v 0 c -34.988,0 -63.351,-28.363 -63.351,-63.351" id="path1289"/>
    </clipPath>
    <clipPath clipPathUnits="userSpaceOnUse" id="clipPath1307">
      <path d="M 0,841.89 H 595.28 V 0 H 0 Z" id="path1305"/>
    </clipPath>
    <clipPath clipPathUnits="userSpaceOnUse" id="clipPath1327">
      <path d="M 0,841.89 H 595.28 V 0 H 0 Z" id="path1325"/>
    </clipPath>
  </defs>
  <metadata id="metadata5">
    <rdf:RDF>
      <cc:Work rdf:about="">
        <dc:format>image/svg+xml</dc:format>
        <dc:type rdf:resource="http://purl.org/dc/dcmitype/StillImage"/>
        <dc:title/>
      </cc:Work>
    </rdf:RDF>
  </metadata>
  <g transform="translate(-212.34349,-253.33142)" id="layer1">
    <g transform="matrix(0.98735058,0,0,0.98735058,2.7194895,3.3512097)" id="g1899">
      <g id="g1918">
        <g transform="matrix(0.35277777,0,0,-0.35277777,267.65824,261.27266)" id="g1269">
          <path id="path1271" style="fill:#2350a9;fill-opacity:1;fill-rule:nonzero;stroke:none" d="M 0,0 V 7.267 C -0.46,7.519 -1.22,7.68 -1.795,7.68 -3.889,7.68 -4.534,5.662 -4.534,3.576 V 3.347 c 0,-2.086 0.461,-4.08 2.555,-4.08 0.645,0 1.565,0.343 1.979,0.733 m -7.227,3.163 v 0.619 c 0,3.393 1.312,6.075 4.719,6.075 0.92,0 1.956,-0.343 2.508,-0.756 V 14.74 H 2.624 V -2.729 H 0.415 L 0.161,-1.65 H 0.046 c -0.805,-0.757 -1.818,-1.285 -3.061,-1.285 -3.291,0 -4.212,3.462 -4.212,6.098 m -5.224,-3.392 v 3.164 l -2.048,-0.184 c -1.174,-0.138 -1.749,-0.803 -1.749,-1.972 0,-1.123 0.529,-1.696 1.657,-1.696 0.621,0 1.703,0.32 2.14,0.688 m -6.467,0.848 c 0,2.476 1.45,3.576 3.636,3.828 l 2.831,0.276 v 0.963 c 0,1.581 -1.289,1.994 -2.67,1.994 -0.943,0 -1.91,-0.206 -2.807,-0.436 v 1.994 c 1.128,0.367 2.462,0.619 3.797,0.619 2.532,0 4.327,-1.146 4.327,-3.691 v -8.895 h -2.186 l -0.231,1.009 h -0.114 c -0.691,-0.687 -2.026,-1.215 -3.154,-1.215 -2.209,0 -3.429,1.353 -3.429,3.554 m -17.077,-3.348 v 1.101 h -0.091 c -0.99,-0.803 -1.934,-1.284 -3.154,-1.284 -2.117,0 -3.176,1.238 -3.176,3.232 v 9.354 h 2.624 V 1.077 c 0,-1.192 0.415,-1.765 1.565,-1.765 0.414,0 1.335,0.252 2.118,0.78 v 9.582 h 2.623 V -2.729 Z m -24.216,7.887 v 0.825 c 0,4.677 1.863,8.046 6.328,8.046 1.128,0 2.325,-0.114 3.338,-0.527 V 11.21 c -0.921,0.367 -1.957,0.504 -3.038,0.504 -2.9,0 -3.637,-3.117 -3.637,-6.006 V 5.433 c 0,-2.889 0.645,-5.938 3.544,-5.938 1.358,0 2.256,0.344 3.245,0.825 v -2.154 c -1.035,-0.757 -2.232,-1.101 -3.59,-1.101 -4.511,0 -6.19,3.599 -6.19,8.093 M -23.682,0 v 7.267 c -0.46,0.252 -1.219,0.413 -1.795,0.413 -2.094,0 -2.739,-2.018 -2.739,-4.104 V 3.347 c 0,-2.086 0.461,-4.08 2.555,-4.08 0.644,0 1.565,0.343 1.979,0.733 m -7.226,3.163 v 0.619 c 0,3.393 1.311,6.075 4.718,6.075 0.92,0 1.956,-0.343 2.508,-0.756 v 5.639 h 2.624 V -2.729 h -2.21 l -0.253,1.079 h -0.115 c -0.805,-0.757 -1.818,-1.285 -3.061,-1.285 -3.291,0 -4.211,3.462 -4.211,6.098 m -14.707,-5.892 h -2.624 V 9.673 h 2.624 z m 0.023,14.443 h -2.646 v 2.453 h 2.646 z m -19.775,-8.39 v 0.275 c 0,2.063 -0.414,4.081 -2.416,4.081 -2.003,0 -2.44,-2.018 -2.44,-4.081 V 3.347 c 0,-2.064 0.46,-4.08 2.463,-4.08 2.002,0 2.393,1.994 2.393,4.057 M -72.87,3.163 v 0.619 c 0,3.53 1.565,6.075 5.11,6.075 3.544,0 5.109,-2.545 5.109,-6.075 V 3.187 c 0,-3.531 -1.565,-6.122 -5.109,-6.122 -3.545,0 -5.11,2.568 -5.11,6.098 m -9.436,0 v 0.619 c 0,3.53 1.496,6.075 5.087,6.075 0.897,0 2.048,-0.206 2.83,-0.527 V 7.175 c -0.713,0.321 -1.749,0.505 -2.6,0.505 -2.21,0 -2.624,-1.926 -2.624,-4.104 V 3.37 c 0,-2.155 0.391,-4.103 2.555,-4.103 1.081,0 1.979,0.343 2.785,0.71 v -1.995 c -0.829,-0.573 -1.98,-0.917 -3.061,-0.917 -3.614,0 -4.972,2.706 -4.972,6.098 m -9.113,6.511 V 8.573 h 0.092 c 0.99,0.803 2.048,1.284 3.268,1.284 2.117,0 3.176,-1.238 3.176,-3.232 v -9.354 h -2.624 v 8.597 c 0,1.193 -0.414,1.766 -1.565,1.766 -0.414,0 -1.45,-0.252 -2.232,-0.78 v -9.583 h -2.624 V 9.674 Z m -8.377,-9.903 v 3.164 l -2.049,-0.184 c -1.174,-0.138 -1.749,-0.803 -1.749,-1.972 0,-1.123 0.53,-1.696 1.657,-1.696 0.622,0 1.703,0.32 2.141,0.688 m -6.468,0.848 c 0,2.476 1.45,3.576 3.637,3.828 l 2.831,0.276 v 0.963 c 0,1.581 -1.289,1.994 -2.67,1.994 -0.944,0 -1.91,-0.206 -2.808,-0.436 v 1.994 c 1.128,0.367 2.462,0.619 3.797,0.619 2.532,0 4.327,-1.146 4.327,-3.691 v -8.895 h -2.186 l -0.23,1.009 h -0.116 c -0.69,-0.687 -2.025,-1.215 -3.152,-1.215 -2.21,0 -3.43,1.353 -3.43,3.554 m -5.069,1.581 c 0,1.606 -0.92,2.545 -2.554,2.545 h -2.417 v -5.296 h 2.417 c 1.841,0 2.554,1.078 2.554,2.751 m -0.506,6.946 c 0,1.605 -0.806,2.408 -2.255,2.408 h -2.21 V 6.671 h 2.21 c 1.634,0 2.255,1.009 2.255,2.475 m -2.002,4.585 c 3.291,0 4.925,-1.42 4.925,-4.103 0,-1.696 -0.553,-3.141 -2.095,-3.668 V 5.846 c 1.75,-0.619 2.601,-1.812 2.601,-3.966 0,-3.416 -2.416,-4.609 -5.385,-4.609 h -5.293 v 16.46 z"/>
        </g>
        <g id="g1907">
          <g id="g1273" transform="matrix(0.35277777,0,0,-0.35277777,214.98943,259.72616)">
            <path d="m 0,0 c 0,-8.425 3.376,-14.751 11.8,-14.751 8.425,0 11.801,6.326 11.801,14.751 0,8.424 -3.376,14.75 -11.801,14.75 C 3.376,14.75 0,8.424 0,0" style="fill:#ffffff;fill-opacity:1;fill-rule:nonzero;stroke:none" id="path1275"/>
          </g>
          <g id="g1277" transform="matrix(0.35277777,0,0,-0.35277777,222.34386,256.02615)">
            <path d="m 0,0 c 1.967,-2.622 2.753,-6.293 2.753,-10.521 0,-8.424 -3.376,-14.718 -11.8,-14.718 -3.769,0 -6.556,1.246 -8.424,3.441 2.95,3.278 7.179,8.031 9.309,10.752 C -6.097,-8.424 -2.491,-3.605 0,0" style="fill:#2350a9;fill-opacity:1;fill-rule:nonzero;stroke:none" id="path1279"/>
          </g>
          <g id="g1281" transform="matrix(0.35277777,0,0,-0.35277777,215.94923,263.42655)">
            <path d="m 0,0 c -1.869,2.654 -2.721,6.261 -2.721,10.456 0,8.457 3.344,14.783 11.801,14.783 3.704,0 6.49,-1.245 8.358,-3.376 C 14.39,18.486 10.128,13.636 8.26,11.243 6.129,8.62 2.491,3.605 0,0" style="fill:#00adef;fill-opacity:1;fill-rule:nonzero;stroke:none" id="path1283"/>
          </g>
        </g>
      </g>
    </g>
  </g>
</svg>