<?xml version="1.0" encoding="UTF-8" standalone="no"?><!DOCTYPE svg PUBLIC "-//W3C//DTD SVG 1.1//EN" "http://www.w3.org/Graphics/SVG/1.1/DTD/svg11.dtd"><svg width="100%" height="100%" viewBox="0 0 498 498" version="1.1" xmlns="http://www.w3.org/2000/svg" xmlns:xlink="http://www.w3.org/1999/xlink" xml:space="preserve" xmlns:serif="http://www.serif.com/" style="fill-rule:evenodd;clip-rule:evenodd;stroke-linejoin:round;stroke-miterlimit:2;"><rect id="Artboard1" x="0" y="0" width="497.355" height="497.255" style="fill:none;"/><clipPath id="_clip1"><rect x="0" y="0" width="497.355" height="497.255"/></clipPath><g clip-path="url(#_clip1)"><path id="path14" d="M342.198,287.795c-32.032,0 -55.184,26.146 -55.184,55.184c0,29.039 23.251,55.185 55.184,55.185c29.039,-0 52.29,-26.146 52.29,-55.185c0,-29.038 -23.251,-55.184 -52.29,-55.184Zm-139.606,104.681l191.996,-287.896l-95.898,0l-191.997,287.896l95.899,-0Zm247.18,-46.403c0,58.178 -46.602,104.68 -104.68,104.68l-293.583,0l-0,-296.577c-0,-58.078 46.602,-107.574 104.68,-107.574l293.783,0l-0,299.471l-0.2,-0Zm-11.476,-346.073l-282.107,0c-84.223,0 -154.176,66.86 -154.176,154.176l-0,285.001c-0,31.933 26.145,58.078 61.072,58.078l282.107,0c84.223,0 154.176,-66.859 154.176,-151.282l0,-285.001c-0.1,-34.827 -26.245,-60.972 -61.072,-60.972Zm-331.603,154.076c0,31.933 23.251,55.184 52.29,55.184c31.933,0 55.184,-23.251 55.184,-55.184c0,-29.039 -23.251,-52.29 -55.184,-52.29c-28.939,0 -52.29,23.251 -52.29,52.29Z" style="fill:#d4201f;fill-rule:nonzero;"/></g></svg>