<?xml version="1.0" encoding="UTF-8" standalone="no"?><!DOCTYPE svg PUBLIC "-//W3C//DTD SVG 1.1//EN" "http://www.w3.org/Graphics/SVG/1.1/DTD/svg11.dtd"><svg width="100%" height="100%" viewBox="0 0 529 396" version="1.1" xmlns="http://www.w3.org/2000/svg" xmlns:xlink="http://www.w3.org/1999/xlink" xml:space="preserve" xmlns:serif="http://www.serif.com/" style="fill-rule:evenodd;clip-rule:evenodd;stroke-linejoin:round;stroke-miterlimit:2;"><rect id="Artboard1" x="0" y="0" width="528.174" height="395.991" style="fill:none;"/><clipPath id="_clip1"><rect x="0" y="0" width="528.174" height="395.991"/></clipPath><g clip-path="url(#_clip1)"><g id="g14"><path id="path6" d="M478.177,398.823c-36.875,-0 -53.75,-35.625 -53.75,-60.937l0,-185.313c0,-4.687 1.25,-46.25 -48.125,-46.25c-41.562,0 -53.124,13.438 -53.749,47.5l-0,190.625c-0,3.438 -1.875,23.437 -15,37.812c-8.75,9.688 -21.25,14.375 -37.188,14.375c-38.75,0 -56.562,-29.374 -56.562,-47.812l-0,-198.437c-0,-13.75 -6.875,-44.688 -50.625,-44.688c-41.25,0 -51.25,23.125 -51.25,44.688l-0,206.875c-1.875,14.687 -21.563,42.187 -57.5,42.187c-31.563,-0 -50.938,-26.875 -50.938,-51.875l0,-280.312c0,-4.375 -1.25,-20.625 9.688,-33.438c8.75,-10.312 22.187,-15.312 39.687,-15.312l2.188,-0c6.562,-0 25.937,1.562 40.312,20.312c13.125,-12.812 40.625,-34.375 87.813,-35.312c61.25,-1.25 91.562,19.687 111.25,40c14.062,-14.063 46.562,-40 94.999,-40c60.938,-0 92.5,29.062 110.625,50.937c15.313,18.438 31.563,55.625 31.563,94.375l-0,190.938c0.312,20.312 -11.25,59.062 -53.438,59.062" style="fill:#d9272e;fill-rule:nonzero;"/></g></g></svg>