<?xml version="1.0" encoding="utf-8"?>
<!-- Generator: Adobe Illustrator 24.0.1, SVG Export Plug-In . SVG Version: 6.00 Build 0)  -->
<svg version="1.1" id="Capa_1" xmlns="http://www.w3.org/2000/svg" xmlns:xlink="http://www.w3.org/1999/xlink" x="0px" y="0px"
	 width="1920px" height="423px" viewBox="0 0 1920 423" style="enable-background:new 0 0 1920 423;" xml:space="preserve">
<style type="text/css">
	.st0{fill:#030404;}
</style>
<path class="st0" d="M230.5,321.8c-7.5,2.9-15.5,5.6-23.9,8c-7.1,2-15.1,3.8-24.2,5.5c-9.1,1.7-18.2,2.5-27.5,2.5
	c-15,0-29.1-2.7-42.3-8.2c-13.2-5.4-24.6-13.3-34.3-23.5c-9.7-10.2-17.4-22.5-22.9-37c-5.5-14.4-8.3-30.7-8.3-48.7
	s3.1-34.2,9.3-48.7c6.2-14.4,14.6-26.8,25.2-37c10.6-10.2,22.9-18,37-23.5c14-5.4,28.9-8.2,44.6-8.2c9.3,0,17.6,0.6,25,1.7
	c7.4,1.1,13.8,2.2,19.1,3.3c6.2,1.3,11.8,2.9,16.9,4.7l-10.9,31.3c-3.8-0.7-7.7-1.4-11.9-2.3c-3.8-0.7-8.1-1.3-13.1-1.8
	c-5-0.6-10.4-0.8-16.4-0.8c-11.3,0-21.8,1.9-31.7,5.8c-9.8,3.9-18.4,9.4-25.7,16.5c-7.3,7.1-13,15.7-17.1,25.8
	c-4.1,10.1-6.1,21.4-6.1,33.8c0,11.8,1.8,22.5,5.3,32.3c3.6,9.8,8.5,18.2,14.8,25.2c6.3,7,13.9,12.5,22.6,16.5c8.8,4,18.4,6,28.8,6
	c4.2,0,8-0.1,11.5-0.3c3.4-0.2,6.4-0.6,8.8-1c2.9-0.4,5.4-0.9,7.6-1.3v-52.9h-39.9v-33.8h79.8V321.8z"/>
<path class="st0" d="M356.2,333.8l-3-19.3h-0.7c-1.5,1.6-3.7,3.6-6.5,6.2c-2.8,2.6-6.1,5.1-9.9,7.7c-3.9,2.6-8.3,4.8-13.4,6.7
	c-5.1,1.9-10.7,2.8-16.9,2.8c-5.5,0-11.1-1.1-16.6-3.3c-5.5-2.2-10.5-5.4-14.9-9.7c-4.4-4.2-8-9.4-10.8-15.7
	c-2.8-6.2-4.1-13.2-4.1-21c0-12.2,3.2-21.9,9.6-29c6.4-7.1,14.3-12.5,23.7-16.2c9.4-3.7,19.5-6,30.4-7.2c10.8-1.1,20.8-1.7,29.9-1.7
	v-3c0-10.8-2-18.8-6.1-24.2c-4.1-5.4-11.3-8.1-21.7-8.1c-5.3,0-10.6,0.6-15.8,1.8c-5.2,1.2-9.9,2.5-14.1,3.8
	c-4.9,1.6-9.6,3.3-14.3,5.3l-9-23.9c6.2-3.1,12.8-5.8,19.9-8.2c5.7-2.2,12.3-4.2,19.7-5.9c7.4-1.8,14.8-2.6,22.1-2.6
	c18.3,0,32.5,5.1,42.3,15.2c9.8,10.1,14.8,24.3,14.8,42.5v107H356.2z M352.9,258.8c-5.3,0-11.2,0.3-17.7,1
	c-6.5,0.7-12.7,1.9-18.6,3.8c-5.9,1.9-10.7,4.7-14.6,8.3s-5.8,8.5-5.8,14.5c0,6.7,2.2,11.8,6.6,15.3c4.4,3.5,9.3,5.3,14.6,5.3
	c4.6,0,9.1-0.9,13.4-2.7c4.3-1.8,8.1-3.8,11.4-6c4-2.4,7.5-5.3,10.6-8.7V258.8z"/>
<path class="st0" d="M430.6,333.8V88.5h39.8v245.3L430.6,333.8L430.6,333.8z"/>
<path class="st0" d="M555.3,115.9c0,6.4-2.2,11.9-6.5,16.3c-4.3,4.5-9.7,6.7-16.1,6.7c-6.4,0-11.7-2.2-15.9-6.7
	c-4.2-4.4-6.3-9.9-6.3-16.3c0-6.4,2.1-11.9,6.3-16.3c4.2-4.4,9.5-6.7,15.9-6.7c6.4,0,11.8,2.2,16.1,6.7
	C553.2,104,555.3,109.4,555.3,115.9z M512.8,333.8V173.2h39.8v160.6H512.8z"/>
<path class="st0" d="M715.2,318.2c-5.7,3.8-11.9,7.1-18.6,10c-5.7,2.4-12.4,4.7-19.9,6.7c-7.5,2-15.4,3-23.6,3
	c-9.3,0-18.1-1.9-26.4-5.7c-8.3-3.8-15.5-9.1-21.7-15.8c-6.2-6.8-11.1-14.9-14.8-24.5c-3.7-9.6-5.5-20.2-5.5-32
	c0-11.8,2-23.8,6-34.7c4-10.9,9.6-20.5,16.7-28.8c7.2-8.3,15.8-14.9,25.9-19.8c10.1-4.9,21.2-7.3,33.3-7.3c5.7,0,11.2,0.5,16.3,1.5
	c5.1,1,9.7,2.1,13.9,3.2c4.6,1.3,9.2,2.8,13.6,4.3l-10.3,27l-6.6-1.7c-2-0.4-4.4-0.9-7.1-1.3c-2.8-0.4-5.8-0.7-9.1-0.7
	c-7.3,0-14,1.4-20.2,4.2c-6.2,2.8-11.5,6.7-15.9,11.7c-4.4,5-7.9,10.9-10.4,17.7c-2.5,6.8-3.8,14.2-3.8,22.2
	c0,14.2,3.9,25.7,11.6,34.3c7.7,8.7,17.9,13,30.5,13c4.4,0,8.8-0.3,13.1-1c4.3-0.7,8.1-1.4,11.4-2.3c4-0.9,7.5-2.1,10.6-3.7
	L715.2,318.2L715.2,318.2z"/>
<path class="st0" d="M783.2,115.9c0,6.4-2.2,11.9-6.5,16.3c-4.3,4.5-9.7,6.7-16.1,6.7c-6.4,0-11.7-2.2-15.9-6.7
	c-4.2-4.4-6.3-9.9-6.3-16.3c0-6.4,2.1-11.9,6.3-16.3c4.2-4.4,9.5-6.7,15.9-6.7c6.4,0,11.8,2.2,16.1,6.7
	C781.1,104,783.2,109.4,783.2,115.9z M740.8,333.8V173.2h39.8v160.6H740.8z"/>
<path class="st0" d="M908.3,333.8l-3-19.3h-0.7c-1.5,1.6-3.7,3.6-6.5,6.2c-2.8,2.6-6.1,5.1-9.9,7.7c-3.9,2.6-8.3,4.8-13.4,6.7
	c-5.1,1.9-10.7,2.8-16.9,2.8c-5.5,0-11.1-1.1-16.6-3.3c-5.5-2.2-10.5-5.4-14.9-9.7c-4.4-4.2-8-9.4-10.8-15.7
	c-2.8-6.2-4.1-13.2-4.1-21c0-12.2,3.2-21.9,9.6-29c6.4-7.1,14.3-12.5,23.7-16.2c9.4-3.7,19.5-6,30.4-7.2c10.8-1.1,20.8-1.7,29.9-1.7
	v-3c0-10.8-2-18.8-6.1-24.2c-4.1-5.4-11.3-8.1-21.7-8.1c-5.3,0-10.6,0.6-15.8,1.8c-5.2,1.2-9.9,2.5-14.1,3.8
	c-4.9,1.6-9.6,3.3-14.3,5.3l-9-23.9c6.2-3.1,12.8-5.8,19.9-8.2c5.7-2.2,12.3-4.2,19.7-5.9c7.4-1.8,14.8-2.6,22.1-2.6
	c18.3,0,32.5,5.1,42.3,15.2c9.8,10.1,14.8,24.3,14.8,42.5v107H908.3z M905,258.8c-5.3,0-11.2,0.3-17.8,1c-6.5,0.7-12.7,1.9-18.6,3.8
	c-5.9,1.9-10.7,4.7-14.6,8.3c-3.9,3.7-5.8,8.5-5.8,14.5c0,6.7,2.2,11.8,6.6,15.3c4.4,3.5,9.3,5.3,14.6,5.3c4.6,0,9.1-0.9,13.4-2.7
	c4.3-1.8,8.1-3.8,11.4-6c4-2.4,7.5-5.3,10.6-8.7V258.8z"/>
<path class="st0" d="M1308.1,335.7h-37.8l-2.9-164.3h-0.7l-88.5,164.3h-10.4l-39.3-166.9h-0.7l-54.1,166.9h-38.5l74.5-227.8h38.5
	l36,149.3l79.4-149.3h39.8L1308.1,335.7z"/>
<path class="st0" d="M1470.6,335.7h-36l2.3-15.7l-0.2-0.2l-0.5-0.2c-13.5,12.6-27.3,18.9-41.4,18.9c-9.5,0-18.1-2.7-25.9-8.2
	s-14-12.9-18.4-22.4c-4.5-9.5-6.7-20-6.7-31.4c0-19.1,4.4-36.1,13.2-50.9c8.8-14.8,21.1-25.9,37-33.4c15.9-7.5,34.3-11.2,55.3-11.2
	c14.2,0,28.4,1.6,42.4,4.9L1470.6,335.7z M1452.2,211.8c-3.3-0.3-6.4-0.5-9.5-0.5c-9,0-17.2,1.4-24.6,4.1
	c-7.4,2.7-13.8,6.8-19.2,12.3c-5.4,5.5-9.8,12.5-13.1,21c-3.3,8.5-5,17.3-5,26.2c0,10.8,2.4,19.4,7.1,25.9c4.7,6.5,11.1,9.8,19,9.8
	c5.1,0,10.7-1.7,16.8-5.1c6.1-3.4,11.8-7.9,17.3-13.5L1452.2,211.8z"/>
<path class="st0" d="M1616.2,227.7c-11.1-6.4-19.7-10.7-25.8-12.8c-6.1-2.1-11.7-3.2-17-3.2c-6.3,0-10.9,1-13.8,3.1
	c-2.9,2.1-4.3,5.7-4.3,10.9c0,2.2,1.2,4.5,3.5,7.1c2.3,2.6,5.9,5.5,10.7,8.7l8.6,5.9c9.8,7,16.5,12.5,20.3,16.7
	c3.8,4.2,6.7,8.7,9,13.5c2.2,4.8,3.3,10.1,3.3,15.9c0,8.8-2.1,16.7-6.4,23.6c-4.3,7-10.4,12.4-18.3,16.3c-7.9,3.9-16.7,5.9-26.3,5.9
	c-9.2,0-18.3-1.2-27.2-3.5c-8.9-2.3-17.3-6.5-25.1-12.6l5.9-31c8.3,5.3,16,9.5,23.2,12.5c7.2,3,14.1,4.5,20.6,4.5
	c5.2,0,9.4-1.2,12.6-3.7c3.1-2.4,4.7-5.6,4.7-9.4c0-3.3-1.4-6.7-4.3-10.2c-2.9-3.5-7.2-7.4-13-11.5c-13-9.3-21.6-16.1-25.6-20.3
	c-4-4.2-7.1-8.5-9.1-13c-2.1-4.5-3.1-9.2-3.1-14.1c0-8.9,2.1-16.9,6.4-23.9c4.3-7,10.4-12.4,18.3-16.3c7.9-3.9,16.8-5.8,26.8-5.8
	c8.2,0,16,1.4,23.4,4.1c7.5,2.7,14.8,6.2,21.9,10.6V227.7z"/>
<path class="st0" d="M1507.7,108.6c-2.8,3-6.5,6.7-11.1,10.9c-4.6,4.3-9.7,8.8-15.2,13.4c-5.5,4.6-10.8,9-16,13.2
	c-3.4,2.8-6.7,5.3-9.6,7.6c-2.8,2.1-6.1,3.2-9.6,3.2h-23.3c-0.2-0.3-0.5-0.7-0.6-1.2c-0.4-1.5,0.4-2.7,0.6-3
	c4.7-5.5,8.6-10.4,11.8-14.3c4.4-5.5,8.7-11.2,13-17.1c0-0.1,2.4-3,2.4-3c7.1-9.8,16.1-12.9,28.2-12.9l29.3,0c0.2,0.1,0.6,0.5,0.7,1
	C1508.6,107.2,1508.4,108,1507.7,108.6z"/>
<path class="st0" d="M1507.2,113.3"/>
<path class="st0" d="M1869,242.5c-5.4,5.8-12.6,13-21.6,21.3c-9,8.4-18.8,17.1-29.5,26c-10.7,9-21,17.6-31,25.7
	c-6.4,5.2-12.4,9.9-17.9,14.2c-5.7,4.4-12.7,6.8-19.9,6.8H1706c-1.4,0-2.8-0.9-3.1-2.3c0,0,0,0,0,0c-0.7-2.7,0.7-5,1.1-5.7
	c0-0.1,0.1-0.1,0.2-0.2c9.1-10.7,16.7-20.2,22.8-27.8c8.5-10.7,17-21.7,25.4-33.3c0.1-0.1,4.6-5.8,4.7-5.9
	c13.9-19.1,31.4-25.2,55-25.2l56.1,0c0.7,0,1.3,0.3,1.8,0.8c0.2,0.3,0.4,0.7,0.6,1.1C1870.8,239.6,1870.3,241.3,1869,242.5z"/>
<path class="st0" d="M1705.6,116.2c5.3,6.1,12.4,13.6,21.3,22.4c8.9,8.8,18.5,17.9,29,27.3c10.5,9.4,20.7,18.4,30.5,27
	c6.6,5.7,12.8,10.9,18.4,15.6c5.3,4.3,11.7,6.5,18.4,6.5h42.7c1.3,0,2.5-0.9,2.9-2.2c0-0.1,0.1-0.2,0.1-0.3c0.7-2.7-0.6-5.1-1-5.9
	c-0.1-0.1-0.1-0.2-0.2-0.3c-8.9-11.2-16.4-21.1-22.4-29.1c-8.4-11.2-16.7-22.8-25-34.9c-0.1-0.1-4.5-6-4.6-6.2
	c-13.7-20-30.8-26.4-54.1-26.4l-54.6,0c-1.3,0-2.5,0.8-2.8,2c0,0,0,0,0,0C1703.8,113.1,1704.3,114.9,1705.6,116.2z"/>
</svg>
