<?xml version="1.0" encoding="UTF-8" standalone="no"?>
<svg
   id="Layer_1"
   data-name="Layer 1"
   version="1.1"
   viewBox="0 0 1018.5 133.80001"
   sodipodi:docname="personal-pay-color.svg"
   width="1018.5"
   height="133.8"
   inkscape:version="1.4 (e7c3feb1, 2024-10-09)"
   xmlns:inkscape="http://www.inkscape.org/namespaces/inkscape"
   xmlns:sodipodi="http://sodipodi.sourceforge.net/DTD/sodipodi-0.dtd"
   xmlns="http://www.w3.org/2000/svg"
   xmlns:svg="http://www.w3.org/2000/svg">
  <sodipodi:namedview
     id="namedview15"
     pagecolor="#ffffff"
     bordercolor="#000000"
     borderopacity="0.25"
     inkscape:showpageshadow="2"
     inkscape:pageopacity="0.0"
     inkscape:pagecheckerboard="0"
     inkscape:deskcolor="#d1d1d1"
     inkscape:zoom="0.43221407"
     inkscape:cx="510.16386"
     inkscape:cy="123.78125"
     inkscape:window-width="1512"
     inkscape:window-height="916"
     inkscape:window-x="0"
     inkscape:window-y="38"
     inkscape:window-maximized="1"
     inkscape:current-layer="Layer_1" />
  <defs
     id="defs1">
    <style
       id="style1">
      .cls-1 {
        fill: #5d4ffc;
        stroke-width: 0px;
      }

      .cls-2 {
        isolation: isolate;
      }
    </style>
  </defs>
  <g
     class="cls-2"
     id="g15"
     transform="translate(-174.5,-318)">
    <g
       id="Layer_1-2"
       data-name="Layer 1">
      <g
         id="g14">
        <path
           class="cls-1"
           d="m 271.7,337 h -97.2 v 38.7 h 7.3 v -31.3 h 89.9 c 7.6,0 14.5,6.2 14.5,13 V 418 h -35.6 c -23.3,0 -42.2,-18.9 -42.2,-42.2 h -7.3 c 0,27.3 22.2,49.6 49.6,49.6 h 42.9 v -67.9 c 0,-10.8 -10.2,-20.4 -21.8,-20.4"
           id="path1" />
        <path
           class="cls-1"
           d="m 250.6,391.4 c -8.7,0 -15.7,-7.1 -15.7,-15.7 h -7.3 c 0,12.7 10.3,23.1 23.1,23.1 v -7.3 h -0.1 z"
           id="path2" />
        <path
           class="cls-1"
           d="m 181.9,375.7 h -7.3 c 0,42 34.1,76.1 76.1,76.1 v -7.3 c -37.9,0 -68.8,-30.8 -68.8,-68.7"
           id="path3" />
        <path
           class="cls-1"
           d="m 449,378 c 1.9,-12.3 9.8,-19.4 21.6,-19.4 11.8,0 10.6,1.9 14.1,5.4 3.5,3.4 5.4,8.3 5.6,14 z m -17.4,6.7 c 0,11.7 3.5,21.7 10,28.8 7,7.7 17.4,11.7 30,11.7 12.6,0 28.4,-8.4 34.6,-21.5 l 0.4,-0.8 -13.7,-6.2 -0.4,0.8 c -4.3,8.2 -11.6,12.6 -21.1,12.6 -15.8,0 -20.9,-10.1 -22.4,-19 h 58.4 V 383 c 0,-11.3 -3.2,-20.9 -9.2,-27.8 -6.4,-7.3 -15.8,-11.1 -27.1,-11.1 -11.3,0 -20.8,4 -28.1,11.4 -7.3,7.4 -11.3,17.8 -11.3,29.2"
           id="path4" />
        <path
           class="cls-1"
           d="m 359.8,384.6 c 0,-15.5 9.5,-25.9 23.7,-25.9 14.2,0 20.6,10.1 20.6,25.2 0,15.1 -8.9,26.6 -21.6,26.6 -12.7,0 -22.7,-10.4 -22.7,-25.9 M 357,362.9 v -16.7 h -14.3 v 105.2 h 15.8 v -39.2 c 3.5,6.6 12.7,13.2 26.1,13.2 13.4,0 18.3,-4.1 24.9,-11.3 7.1,-7.7 11,-18.2 11,-29.8 0,-22.9 -14.8,-40.1 -34.5,-40.1 -19.7,0 -25.1,7.2 -28.9,18.8"
           id="path5" />
        <path
           class="cls-1"
           d="m 518.8,346.1 v 77 h 15.8 v -47.6 c 0,-9.1 4.5,-13.7 13.4,-13.7 h 12.7 V 345.9 H 553 c -7.9,0 -16.4,1.9 -20.3,15.5 v -15.3 z"
           id="path6" />
        <path
           class="cls-1"
           d="m 629.9,362.4 c -2,-4.4 -4.8,-8.3 -8.4,-11.3 -5.7,-4.7 -12.8,-7.1 -21.2,-7.1 -8.4,0 -15.2,2.3 -20.8,6.5 -5.9,4.5 -9.2,10.8 -9.2,17.7 0,17.2 15.4,21 27.7,24.1 9.1,2.3 17,4.3 16.9,10.7 0,5.1 -5.6,8.4 -14,8.4 -8.4,0 -16.6,-5 -19.7,-14 l -0.3,-0.9 -14.4,5.6 0.3,0.8 c 4.8,14.2 17.1,22.3 33.9,22.3 16.8,0 30.3,-9.2 30.4,-23 0,-15.6 -14,-19.1 -26.4,-22.2 -9.8,-2.5 -18.3,-4.6 -18.3,-12 0,-7.4 5.1,-10.3 13.4,-10.3 8.3,0 14.2,4.7 17.2,12.4 l 12.8,-7.8 v 0 z"
           id="path7" />
        <path
           class="cls-1"
           d="m 772.6,343.8 c -11.6,0 -21.9,7.4 -25.9,18.6 v -16.2 h -14.3 v 77 h 15.8 v -37.7 c 0,-16.5 7.8,-26.3 20.9,-26.3 13.1,0 15.9,7.1 15.9,18.5 v 45.6 h 15.8 v -45.5 c 0,-21.3 -10.5,-34 -28,-34"
           id="path8" />
        <path
           class="cls-1"
           d="m 862.4,390.2 c -0.5,11.1 -10.7,20.9 -21.8,20.9 -11.1,0 -11.2,-3.7 -11.2,-9.6 0,-5.9 0.9,-4.9 2.7,-6.6 3,-3 8.6,-4.7 15.3,-4.7 6.7,0 0.4,0 0.6,0 z m 15.7,16.6 v -33.7 c 0,-17.6 -11.8,-29 -30.2,-29 -18.4,0 -26.7,7.3 -34,20.6 l 13.4,5.6 c 5.3,-8 12.2,-12.2 20,-12.2 7.8,0 15,5.3 15,14.3 v 6.5 h -17.2 c -8.2,0 -15.8,2.1 -21.6,5.9 -6.5,4.3 -10,10.5 -10,17.8 0,13.4 9.7,22.4 24.3,22.4 14.6,0 21.3,-6.8 25.5,-17.8 v 1.9 c 0,9.3 4.3,14.3 12.3,14.3 h 10.9 v -13.8 h -6.7 c -1.3,0 -1.8,0 -1.8,-2.6"
           id="path9" />
        <path
           class="cls-1"
           d="m 913.7,408.1 c -1.5,0 -1.8,0 -1.8,-2.6 V 318 H 896 v 83.4 c 0,7.4 1.4,12.5 4.2,15.9 3.1,3.9 8.2,5.8 15.6,5.8 h 11.3 V 408 h -13.4 v 0 z"
           id="path10" />
        <path
           class="cls-1"
           d="m 680.1,359.2 c -14,0 -25.5,11.4 -25.5,25.5 0,14.1 11.4,25.5 25.5,25.5 14.1,0 25.5,-11.4 25.5,-25.5 0,-14.1 -11.4,-25.5 -25.5,-25.5 m 0,66.1 c -22.4,0 -40.7,-18.2 -40.7,-40.7 0,-22.5 18.2,-40.7 40.7,-40.7 22.5,0 40.7,18.2 40.7,40.7 0,22.5 -18.2,40.7 -40.7,40.7"
           id="path11" />
        <path
           class="cls-1"
           d="m 1002.6,417.6 c 15.7,0 27,-12 27,-33.4 0,-21.4 -10.3,-34.1 -26.4,-34.1 -16.1,0 -27.9,16 -27.9,34.1 0,18.1 9.1,33.4 27.3,33.4 m -35.1,-72.5 h 7.3 v 17.1 h 0.6 c 3.9,-10 12.8,-19.3 28,-19.3 15.2,0 34.3,17 34.3,41.2 0,24.2 -15.1,40.8 -34.7,40.8 -19.6,0 -23.8,-9.3 -27.4,-19.6 h -0.7 v 46.4 h -7.3 V 345 v 0 z"
           id="path12" />
        <path
           class="cls-1"
           d="m 1074.6,417.1 c 13.6,0 26,-12.5 27.7,-30.8 h -19.4 c -13.9,0 -25.7,5.7 -25.7,16.5 0,10.8 7.8,14.2 17.4,14.2 m -25.4,-14.2 c 0,-14.4 13.8,-23.1 33.4,-23.1 h 19.7 v -9.9 c 0,-11.5 -7.1,-19.3 -19.7,-19.3 -12.6,0 -21.5,6.2 -26.4,19.2 l -7,-3.3 c 5.8,-14.7 19,-23.4 33.7,-23.4 14.7,0 27.3,12 27.3,26.8 V 413 c 0,1.5 0.9,2.5 1.7,2.5 h 7 v 7.3 h -7.7 c -6.4,0 -8.6,-3.9 -8.6,-10.9 v -7.7 c 0,0 -1,0 -1,0 -4.8,11.8 -14.8,20.3 -28.2,20.3 -13.4,0 -24.2,-7.4 -24.2,-21.8"
           id="path13" />
        <path
           class="cls-1"
           d="m 1131.4,345.2 26.1,71.1 h 1 l 26.4,-71.1 h 8.1 l -35.1,91.6 c -3.3,8.6 -7,12.9 -13.5,12.9 h -13.9 v -7.3 h 12.9 c 3.9,0 6.2,-3.2 8.1,-8 l 4.5,-11.6 h -4.4 l -28.4,-77.6 z"
           id="path14" />
      </g>
    </g>
  </g>
</svg>
