<?xml version="1.0" encoding="UTF-8" standalone="no"?>
<!-- Created with sK1/UniConvertor (http://sk1project.org/) -->

<svg
   xmlns:dc="http://purl.org/dc/elements/1.1/"
   xmlns:cc="http://creativecommons.org/ns#"
   xmlns:rdf="http://www.w3.org/1999/02/22-rdf-syntax-ns#"
   xmlns:svg="http://www.w3.org/2000/svg"
   xmlns="http://www.w3.org/2000/svg"
   xmlns:sodipodi="http://sodipodi.sourceforge.net/DTD/sodipodi-0.dtd"
   xmlns:inkscape="http://www.inkscape.org/namespaces/inkscape"
   width="500"
   height="190"
   viewBox="0 0 400.00001 151.99999"
   id="svg2985"
   version="1.1"
   inkscape:version="0.48.1 "
   sodipodi:docname="banco_hipotec_arg_logo.svg"
   style="fill-rule:evenodd">
  <metadata
     id="metadata3033">
    <rdf:RDF>
      <cc:Work
         rdf:about="">
        <dc:format>image/svg+xml</dc:format>
        <dc:type
           rdf:resource="http://purl.org/dc/dcmitype/StillImage" />
        <dc:title></dc:title>
      </cc:Work>
    </rdf:RDF>
  </metadata>
  <defs
     id="defs3031" />
  <sodipodi:namedview
     pagecolor="#ffffff"
     bordercolor="#666666"
     borderopacity="1"
     objecttolerance="10"
     gridtolerance="10"
     guidetolerance="10"
     inkscape:pageopacity="0"
     inkscape:pageshadow="2"
     inkscape:window-width="1366"
     inkscape:window-height="706"
     id="namedview3029"
     showgrid="false"
     inkscape:zoom="2.0363103"
     inkscape:cx="258.45973"
     inkscape:cy="45.334782"
     inkscape:window-x="-8"
     inkscape:window-y="-8"
     inkscape:window-maximized="1"
     inkscape:current-layer="svg2985" />
  <g
     id="g3884">
    <path
       style="fill:#2c2c2b;stroke:none"
       d="m 166.28278,40.443145 c -5.05279,0.04005 -7.62467,4.678529 -7.62467,9.255211 0,4.568277 2.56298,9.287347 7.62467,9.326899 5.07504,-0.03856 7.74482,-4.619695 7.74482,-9.254716 0,-4.637494 -2.64802,-9.287348 -7.74482,-9.327394 z m 0,1.798635 c 4.0635,0.02027 5.87449,4.048166 5.87449,7.600447 0,3.539921 -1.79863,7.4368 -5.82653,7.45707 -4.04174,-0.02077 -5.82604,-4.140619 -5.82604,-7.648898 0,-3.505807 1.78628,-7.388348 5.77808,-7.408619 z"
       id="path2993"
       inkscape:connector-curvature="0" />
    <path
       style="fill:#2c2c2b;stroke:none"
       d="m 154.10022,55.524887 c -1.05407,1.054066 -2.43889,1.64636 -3.93199,1.65427 -4.10452,-0.01928 -6.32983,-3.777233 -6.32983,-7.528758 0,-3.763391 2.23421,-7.317649 6.30561,-7.33693 1.46986,0 2.92686,0.517639 3.98043,1.558356 0.35795,0.34262 1.00067,0.404915 1.35466,0.02423 0.46178,-0.484514 0.24671,-1.177172 -0.20369,-1.558356 -1.39372,-1.293851 -3.15824,-1.974148 -5.05922,-1.966238 -5.24907,0.03757 -8.32029,4.521804 -8.32029,9.44704 0,4.87184 3.00596,9.169679 8.17642,9.206759 1.93262,-0.0074 3.6828,-0.721827 5.13091,-1.989969 0.34954,-0.3179 0.45979,-0.88498 0.27587,-1.318571 -0.2378,-0.538898 -0.97446,-0.596249 -1.37888,-0.191828 z"
       id="path2995"
       inkscape:connector-curvature="0" />
    <path
       style="fill:#2c2c2b;stroke:none"
       d="m 124.01831,58.114566 c 0,0.574496 0.30356,0.910689 0.88696,0.910689 0.57647,0 0.86322,-0.351025 0.86322,-0.910689 l 0,-13.523386 9.81933,13.715215 c 0.28626,0.399477 0.68672,0.71886 1.19892,0.71886 0.63778,0 0.86323,-0.482042 0.86323,-1.05456 l 0,-15.801097 c 0,-0.57499 -0.30356,-0.911184 -0.88696,-0.911184 -0.57647,0 -0.86323,0.351026 -0.86323,0.911184 l 0,13.690988 -9.77186,-13.762677 c -0.29664,-0.418264 -0.69266,-0.863226 -1.24639,-0.863226 -0.63777,0 -0.86322,0.482536 -0.86322,1.055054 l 0,15.824829 z"
       id="path2997"
       inkscape:connector-curvature="0" />
    <path
       style="fill:#2c2c2b;stroke:none"
       d="m 118.45084,58.445816 c 0.18343,0.489953 0.69909,0.680298 1.1747,0.52901 0.52852,-0.167602 0.60021,-0.824168 0.40789,-1.272591 l -5.61048,-15.345259 c -0.23188,-0.631846 -0.6892,-1.078786 -1.39076,-1.078786 -0.70205,0 -1.15887,0.44694 -1.39075,1.078786 l -5.41865,15.345259 c -0.14832,0.444962 -0.14931,1.109933 0.39503,1.27803 0.64519,0.200727 1.14948,-0.298619 1.35516,-0.870148 l 0.98287,-2.733551 8.24811,0 1.24688,3.06925 z m -5.39491,-14.721818 3.50086,9.830202 -7.09764,0 3.59678,-9.830202 z"
       id="path2999"
       inkscape:connector-curvature="0" />
    <path
       style="fill:#2c2c2b;stroke:none"
       d="m 91.657205,57.850556 c 0,0.998198 0.485008,1.174699 1.390259,1.174699 l 4.688911,0 c 2.805735,0 5.082955,-2.152133 5.082955,-4.987036 0,-2.299465 -1.83473,-4.381393 -4.100083,-4.747251 1.622633,-0.507751 2.711793,-2.112581 2.709323,-3.788604 -0.003,-2.72564 -2.629724,-4.219724 -5.10668,-4.219724 l -3.681814,0 c -0.706501,0 -0.982871,0.501324 -0.982871,1.150968 l 0,15.416948 z m 1.773915,-9.135072 0,-5.68266 2.746899,0 c 1.651304,0 3.384184,1.023413 3.380723,2.829464 -0.0035,1.540064 -1.702227,2.853196 -3.150331,2.853196 l -2.977291,0 z m 0,1.630045 2.746899,0 c 0.591305,0 1.16679,0.08009 1.718048,0.240279 1.635978,0.473637 2.935263,1.69135 2.933293,3.476637 -0.002,2.131368 -1.858956,3.212626 -3.81234,3.212626 l -3.5859,0 0,-6.929542 z"
       id="path3001"
       inkscape:connector-curvature="0" />
    <path
       style="fill:#2c2c2b;stroke:none"
       d="m 92.271747,114.02998 c 0,1.41746 0.737648,2.22679 2.173392,2.22679 1.410036,0 2.115053,-0.74259 2.115053,-2.22679 l 0,-18.739326 20.947328,0 0,18.739326 c 0,1.4842 0.70502,2.22679 2.11456,2.22679 1.42932,0 2.23272,-0.79549 2.23272,-2.22679 l 0,-41.375042 c 0,-1.44761 -0.76583,-2.288094 -2.23272,-2.288094 -1.45354,0 -2.11456,0.89388 -2.11456,2.288094 l 0,18.059528 -20.947328,0 0,-18.059528 c 0,-1.432778 -0.701062,-2.288094 -2.173392,-2.288094 -1.454037,0 -2.115053,0.89388 -2.115053,2.288094 l 0,41.375042 z"
       id="path3003"
       inkscape:connector-curvature="0" />
    <path
       style="fill:#2c2c2b;stroke:none"
       d="m 145.55546,127.00112 c 0,1.39768 0.59477,2.47498 2.11505,2.47498 1.34033,0 2.20702,-1.11685 2.23223,-2.41466 l 0,-16.72019 c 1.73387,3.80442 5.57043,5.97584 9.69325,5.97584 9.34915,-0.0519 13.68802,-9.20132 13.68802,-17.444986 0,-8.195213 -4.28152,-17.816282 -13.68802,-17.867699 -4.09217,0.04054 -8.346,3.07271 -9.69325,6.941902 l 0,-4.587559 c 0,-1.439205 -0.67387,-2.354343 -2.17389,-2.354343 -1.49952,0 -2.17339,0.914644 -2.17339,2.354343 l 0,43.642372 z m 14.45188,-14.78856 c -7.04326,-0.0524 -9.75209,-7.34138 -9.75209,-13.340456 0,-5.860151 2.71427,-13.348862 9.75209,-13.400775 6.80198,0.0529 8.87056,8.158133 8.87056,13.642043 0,5.566478 -2.08539,13.046288 -8.87056,13.099188 z"
       id="path3005"
       inkscape:connector-curvature="0" />
    <path
       style="fill:#2c2c2b;stroke:none"
       d="m 193.61087,81.004405 c -9.54542,0.05092 -14.21703,9.091564 -14.21703,17.625936 0,8.535359 4.67111,17.575009 14.21703,17.626429 9.47275,-0.0514 14.21703,-8.62386 14.21703,-17.203715 0,-8.481966 -4.61277,-17.997727 -14.21703,-18.04865 z m 0,4.34629 c 6.89988,0.05241 9.69325,8.335129 9.69325,14.064757 0,5.994628 -2.83094,12.593908 -9.69325,12.675978 -6.97305,-0.0514 -9.63491,-8.08397 -9.63491,-13.883308 0,-5.961503 2.71971,-12.806009 9.63491,-12.857427 z"
       id="path3007"
       inkscape:connector-curvature="0" />
    <path
       style="fill:#2c2c2b;stroke:none"
       d="m 244.55804,80.88377 c -9.41836,0.05191 -14.21703,9.351126 -14.21703,17.746571 0,9.099969 5.31729,17.575009 15.15689,17.626429 4.69534,0 9.10195,-1.57813 12.04315,-5.37267 0.66249,-0.68029 0.49786,-2.14027 -0.13695,-2.75629 -1.13515,-1.04072 -2.94219,-0.31741 -3.91666,0.58339 -2.37016,2.16203 -4.77939,3.10831 -7.98954,3.07865 -5.45969,-0.041 -10.47737,-5.57834 -10.51544,-10.9258 l 19.85618,0 c 3.01783,0 3.3125,-2.407738 3.29025,-4.889638 0,-8.340567 -4.76208,-15.050101 -13.57085,-15.090642 z m -9.51724,15.63399 c 0.0361,-5.569936 3.68181,-11.124546 9.69374,-11.167065 6.05198,0.04351 9.04707,5.738033 9.04707,11.167065 l -18.74081,0 z"
       id="path3009"
       inkscape:connector-curvature="0" />
    <path
       style="fill:#2c2c2b;stroke:none"
       d="m 280.4116,86.074995 c 2.11357,0 4.46742,0.551258 6.4035,1.388281 0.71738,0.246213 1.49458,0.08652 1.99739,-0.532965 1.33785,-1.610269 0.0326,-3.104847 -1.46838,-3.812831 -2.19663,-1.014019 -4.58904,-1.349718 -6.99134,-1.328459 -9.43864,0.04499 -15.44068,8.073095 -15.50891,17.022766 0.0351,8.965983 6.10439,17.401483 15.62658,17.444983 2.80721,0 5.4755,-0.88102 7.81353,-2.41466 1.20881,-0.95321 2.1996,-2.78497 0.46968,-3.9033 -0.26401,-0.17107 -0.5384,-0.26154 -0.82219,-0.26154 -0.27143,0 -0.54681,0.0742 -0.76385,0.24126 -1.94992,1.32401 -4.2128,2.07452 -6.57951,2.05227 -6.82176,-0.044 -11.24518,-6.50436 -11.27979,-12.857428 0.0326,-6.610653 3.89589,-12.992398 11.10329,-13.038377 z"
       id="path3011"
       inkscape:connector-curvature="0" />
    <path
       style="fill:#2c2c2b;stroke:none"
       d="m 331.1709,114.08338 c 0,1.4486 0.70502,2.17339 2.11505,2.17339 1.40954,0 2.17339,-0.76385 2.17339,-2.17339 l 0,-17.460806 c 0,-5.966942 5.87004,-8.150717 9.57163,-9.382767 1.13367,-0.377229 1.95487,-2.001835 1.32401,-3.400994 -1.69876,-3.76784 -9.1939,1.790725 -10.89564,4.867885 l 0,-4.080302 c 0,-1.439205 -0.67337,-2.354344 -2.17339,-2.354344 -1.41003,0 -2.11505,0.784617 -2.11505,2.354344 l 0,29.456984 z"
       id="path3013"
       inkscape:connector-curvature="0" />
    <path
       style="fill:#2c2c2b;stroke:none"
       d="m 353.2247,114.02306 c 0,1.4397 0.79253,2.23371 2.23223,2.23371 1.4397,0 2.23222,-0.79401 2.23222,-2.23371 l 0,-29.819378 c 0,-1.451565 -0.86124,-2.233215 -2.29106,-2.233215 -1.42239,0 -2.17339,0.830596 -2.17339,2.233215 l 0,29.819378 z m -0.88152,-40.515278 c 0,1.666631 1.24738,3.017832 2.93774,3.017832 1.69036,0 2.93725,-1.351201 2.93725,-3.017832 0,-1.66663 -1.24738,-3.018326 -2.93725,-3.018326 -1.69036,0 -2.93774,1.351202 -2.93774,3.018326 z"
       id="path3015"
       inkscape:connector-curvature="0" />
    <path
       style="fill:#2c2c2b;stroke:none"
       d="m 379.11655,81.004405 c -9.54542,0.05092 -14.21703,9.091564 -14.21703,17.625936 0,8.535359 4.67111,17.575009 14.21703,17.626429 9.47275,-0.0514 14.21703,-8.62386 14.21703,-17.203715 0,-8.481966 -4.61228,-17.997727 -14.21703,-18.04865 z m 0,4.34629 c 6.90037,0.05241 9.69325,8.335129 9.69325,14.064757 0,5.994628 -2.83095,12.593908 -9.69325,12.675978 -6.97305,-0.0514 -9.63442,-8.08397 -9.63442,-13.883308 0,-5.961503 2.71922,-12.806009 9.63442,-12.857427 z"
       id="path3017"
       inkscape:connector-curvature="0" />
    <path
       style="fill:#f47321;stroke:none;fill-opacity:1"
       d="m 74.67053,144.80257 -68.6051927,0 0,-28.38462 29.2514607,-17.060837 c 2.375158,-1.385316 3.481482,-2.216406 5.051111,-2.270296 1.569727,0.05389 2.675705,0.88498 5.051308,2.270296 l 29.251313,17.060837 0,28.38462 z"
       id="path3019"
       inkscape:connector-curvature="0" />
    <path
       style="fill:#f47321;stroke:none;fill-opacity:1"
       d="m 74.67053,7.550559 -68.6051927,0 0,97.594031 29.2514607,-17.060344 c 2.375158,-1.385316 3.481482,-2.216406 5.051111,-2.270296 1.569727,0.05389 2.675705,0.88498 5.051308,2.270296 l 29.251313,17.060344 0,-97.594031 z"
       id="path3021"
       inkscape:connector-curvature="0" />
    <path
       style="fill:#2c2c2b;stroke:none"
       d="m 307.65861,81.004405 c -9.54592,0.05092 -14.21704,9.091564 -14.21704,17.625936 0,8.535359 4.67112,17.575009 14.21704,17.626429 3.73372,-0.0203 7.22964,-1.42833 9.75159,-4.20044 l 0,1.30275 c 0,1.4397 0.79302,2.23322 2.23272,2.23322 1.4397,0 2.23223,-0.79352 2.23223,-2.23322 l 0,-29.81938 c 0,-1.451566 -0.86125,-2.23371 -2.29106,-2.23371 -1.4224,0 -2.17389,0.83109 -2.17389,2.23371 l 0,2.008756 c -2.46707,-2.892748 -5.93085,-4.523781 -9.75159,-4.544051 z m 0,4.34629 c 6.94141,0.05241 9.69275,8.344028 9.69275,14.064757 0,6.047038 -2.96493,12.595398 -9.69275,12.675978 -6.97355,-0.0514 -9.63491,-8.08397 -9.63491,-13.883308 0,-5.961503 2.7197,-12.806009 9.63491,-12.857427 z"
       id="path3023"
       inkscape:connector-curvature="0" />
    <path
       style="fill:#2c2c2b;stroke:none"
       d="m 213.38004,82.232994 c -1.4392,0 -2.23321,0.793022 -2.23321,2.232721 0,1.4397 0.79351,2.232227 2.23321,2.232227 l 3.71,0 0,27.325118 c 0,1.4397 0.79302,2.23371 2.23272,2.23371 1.4392,0 2.23222,-0.79401 2.23222,-2.23371 l 0,-27.325118 3.71,0 c 1.45156,0 2.23371,-0.861744 2.23371,-2.291061 0,-1.42289 -0.83159,-2.173887 -2.23371,-2.173887 l -3.71,0 0,-8.545744 c 0,-1.451565 -0.86174,-2.233709 -2.29106,-2.233709 -1.42289,0 -2.17388,0.83109 -2.17388,2.233709 l 0,8.545744 -3.71,0 z"
       id="path3025"
       inkscape:connector-curvature="0" />
    <path
       style="fill:#2c2c2b;stroke:none"
       d="m 131.41506,114.02306 c 0,1.4397 0.79302,2.23371 2.23223,2.23371 1.4397,0 2.23272,-0.79401 2.23272,-2.23371 l 0,-29.819378 c 0,-1.451565 -0.86175,-2.233215 -2.29156,-2.233215 -1.42239,0 -2.17339,0.830596 -2.17339,2.233215 l 0,29.819378 z m -0.88102,-40.515278 c 0,1.666631 1.24688,3.017832 2.93724,3.017832 1.69036,0 2.93724,-1.351201 2.93724,-3.017832 0,-1.66663 -1.24688,-3.018326 -2.93724,-3.018326 -1.69036,0 -2.93724,1.351202 -2.93724,3.018326 z"
       id="path3027"
       inkscape:connector-curvature="0" />
  </g>
</svg>
