<?xml version="1.0" encoding="UTF-8" standalone="no"?><!DOCTYPE svg PUBLIC "-//W3C//DTD SVG 1.1//EN" "http://www.w3.org/Graphics/SVG/1.1/DTD/svg11.dtd"><svg width="100%" height="100%" viewBox="0 0 2223 845" version="1.1" xmlns="http://www.w3.org/2000/svg" xmlns:xlink="http://www.w3.org/1999/xlink" xml:space="preserve" xmlns:serif="http://www.serif.com/" style="fill-rule:evenodd;clip-rule:evenodd;stroke-linejoin:round;stroke-miterlimit:2;"><g><clipPath id="_clip1"><path d="M830.247,341.21c44.593,224.149 -100.945,441.994 -325.095,486.549c-224.127,44.593 -441.965,-100.945 -486.549,-325.095c-44.593,-224.127 100.975,-441.965 325.095,-486.55c224.15,-44.592 441.994,100.976 486.549,325.096Z" clip-rule="nonzero"/></clipPath><g clip-path="url(#_clip1)"><g><g><clipPath id="_clip2"><rect x="10.644" y="8.156" width="420.826" height="578.635" clip-rule="nonzero"/></clipPath><g clip-path="url(#_clip2)"><g><clipPath id="_clip3"><path d="M-225.424,319.252l261.957,-392.03l392.029,261.934l-261.957,392.029l-392.029,-261.933Z" clip-rule="nonzero"/></clipPath><g clip-path="url(#_clip3)"><clipPath id="_clip4"><path d="M10.644,8.156l834.137,0l-0,834.137l-834.137,-0l0,-834.137Z" clip-rule="nonzero"/></clipPath><g clip-path="url(#_clip4)"><path d="M336.566,-273.263l91.996,462.419l-462.42,91.996l-91.995,-462.42l462.419,-91.995Z"/></g></g></g></g></g><g><g><clipPath id="_clip5"><path d="M1074.27,524.644l-261.927,392.007l-392.029,-261.934l261.926,-392.029l392.03,261.956Z" clip-rule="nonzero"/></clipPath><g clip-path="url(#_clip5)"><clipPath id="_clip6"><path d="M10.644,8.156l834.137,0l-0,834.137l-834.137,-0l0,-834.137Z" clip-rule="nonzero"/></clipPath><g clip-path="url(#_clip6)"><path d="M512.284,1117.14l-91.966,-462.42l462.42,-91.965l91.965,462.419l-462.419,91.966Z"/></g></g></g></g><g><clipPath id="_clip7"><rect x="33.189" y="8.156" width="563.606" height="345.678" clip-rule="nonzero"/></clipPath><g clip-path="url(#_clip7)"><g><clipPath id="_clip8"><path d="M37.532,-110.171l462.42,-91.995l91.995,462.419l-462.419,91.996l-91.996,-462.42Z" clip-rule="nonzero"/></clipPath><g clip-path="url(#_clip8)"><clipPath id="_clip9"><path d="M10.644,8.156l834.137,0l-0,834.137l-834.137,-0l0,-834.137Z" clip-rule="nonzero"/></clipPath><g clip-path="url(#_clip9)"><path d="M853.881,-131.776l-261.934,392.029l-392.029,-261.934l261.934,-392.029l392.029,261.934Z"/></g></g></g></g></g><g><clipPath id="_clip10"><rect x="251.116" y="489.1" width="563.606" height="353.193" clip-rule="nonzero"/></clipPath><g clip-path="url(#_clip10)"><g><clipPath id="_clip11"><path d="M811.318,954.074l-462.42,91.966l-91.973,-462.42l462.427,-91.965l91.966,462.419Z" clip-rule="nonzero"/></clipPath><g clip-path="url(#_clip11)"><clipPath id="_clip12"><path d="M10.644,8.156l834.137,0l-0,834.137l-834.137,-0l0,-834.137Z" clip-rule="nonzero"/></clipPath><g clip-path="url(#_clip12)"><path d="M-5.016,975.66l261.941,-392.04l392.014,261.924l-261.941,392.039l-392.014,-261.923Z"/></g></g></g></g></g><g><g><clipPath id="_clip13"><path d="M-107.683,808.829l-91.995,-462.419l462.419,-91.973l91.996,462.427l-462.42,91.965Z" clip-rule="nonzero"/></clipPath><g clip-path="url(#_clip13)"><clipPath id="_clip14"><path d="M10.644,8.156l834.137,0l-0,834.137l-834.137,-0l0,-834.137Z" clip-rule="nonzero"/></clipPath><g clip-path="url(#_clip14)"><path d="M-129.298,-7.504l392.039,261.941l-261.923,392.013l-392.04,-261.94l261.924,-392.014Z"/></g></g></g></g><g><clipPath id="_clip15"><rect x="258.631" y="8.156" width="586.15" height="420.826" clip-rule="nonzero"/></clipPath><g clip-path="url(#_clip15)"><g><clipPath id="_clip16"><path d="M527.133,-227.912l392.006,261.956l-261.934,392.03l-392.029,-261.957l261.957,-392.029Z" clip-rule="nonzero"/></clipPath><g clip-path="url(#_clip16)"><clipPath id="_clip17"><path d="M10.644,8.156l834.137,0l-0,834.137l-834.137,-0l0,-834.137Z" clip-rule="nonzero"/></clipPath><g clip-path="url(#_clip17)"><path d="M1119.63,334.107l-462.426,91.967l-91.971,-462.449l462.426,-91.967l91.971,462.449Z"/></g></g></g></g></g><g><g><clipPath id="_clip18"><path d="M321.74,1071.79l-392.029,-261.926l261.933,-392.029l392.03,261.926l-261.934,392.029Z" clip-rule="nonzero"/></clipPath><g clip-path="url(#_clip18)"><clipPath id="_clip19"><path d="M10.644,8.156l834.137,0l-0,834.137l-834.137,-0l0,-834.137Z" clip-rule="nonzero"/></clipPath><g clip-path="url(#_clip19)"><path d="M-270.769,509.824l462.413,-91.994l91.99,462.391l-462.414,91.994l-91.989,-462.391Z"/></g></g></g></g></g></g></g><g id="Layer1"><g><g><path d="M811.586,245.116l94.248,-0.366l15.88,178.426l107.243,-178.904l95.345,-0.37l-190.393,332.41l-104.071,0.15l-15.092,-186.912l-118.557,187.105l-103.585,0.149l218.982,-331.688Z" style="fill-rule:nonzero;"/><path d="M1405.05,242.812l101.303,-0.393l-90.39,193.924l-36.269,57.012l-53.183,47.794l-58.208,29.15l-83.404,11.914l-55.268,-3.536l-44.042,-14.221l-21.413,-30.102l-1.361,-39.772l21.781,-57.429l107.197,-193.513l101.091,-0.392l-104.338,198.468l-6.956,43.401l35.996,15.711l51.777,-15.662l37.492,-43.735l98.195,-198.619Z" style="fill-rule:nonzero;"/><path d="M1573.64,242.158l101.694,-0.395l-103.812,247.803l169.802,-0.349l-32.198,85.979l-284.627,0.41l149.141,-333.448Z" style="fill-rule:nonzero;"/><path d="M1800.25,403.355c18.356,-49.959 47.383,-93.215 91.229,-124.657c42.154,-30.23 89.359,-43.476 140.602,-43.677c40.057,-0.157 87.849,6.942 114.915,41.996c27.344,35.41 22.417,83.409 11.746,122.641c-9.535,35.053 -24.343,69.427 -47.529,97.868c-21.452,26.311 -47.674,46.611 -78.326,61.15c-33.572,15.923 -70.187,22.209 -107.027,22.26c-30.309,0.043 -67.312,-3.392 -94.61,-18.94c-23.261,-13.249 -36.851,-33.891 -43.08,-59.47c-7.872,-32.328 1.072,-69.209 12.08,-99.171Zm106.403,0.171c-5.948,17.547 -16.466,52.724 -5.179,73.645c9.583,17.764 28.075,22.719 46.608,22.683c23.097,-0.046 43.739,-7.29 61.43,-22.446c22.015,-18.861 35.196,-53.195 42.899,-78.83c5.302,-17.642 12.835,-48.73 1.158,-68.023c-9.974,-16.482 -27.765,-21.029 -45.574,-20.97c-21.832,0.074 -40.879,7.855 -57.686,21.634c-21.644,17.744 -35.11,47.096 -43.656,72.307Z" style="fill-rule:nonzero;"/></g></g><path d="M903.849,681.796c-0.833,-10.241 -4.339,-17.939 -10.517,-23.096c-6.179,-5.157 -15.03,-7.735 -26.554,-7.735c-10.413,0 -18.883,2.048 -25.408,6.144c-6.526,4.096 -9.789,10.058 -9.789,17.884c0,6.949 2.517,12.124 7.55,15.525c5.033,3.402 14.665,6.785 28.897,10.149c12.634,2.926 22.943,5.925 30.927,8.997c7.983,3.072 14.821,7.845 20.514,14.318c5.693,6.474 8.539,15.16 8.539,26.058c-0,13.825 -5.224,25.308 -15.672,34.452c-10.448,9.143 -24.072,13.714 -40.872,13.714c-21.451,0 -37.505,-5.047 -48.161,-15.141c-10.657,-10.094 -16.297,-23.187 -16.922,-39.279l19.16,-1.755c0.903,12.873 5.624,22.254 14.162,28.142c8.539,5.889 18.848,8.833 30.928,8.833c11.316,-0 20.462,-2.451 27.439,-7.351c6.977,-4.901 10.465,-11.557 10.465,-19.969c0,-8.777 -3.645,-15.178 -10.934,-19.201c-7.289,-4.023 -19.525,-7.991 -36.707,-11.904c-17.181,-3.913 -29.556,-9.417 -37.123,-16.512c-7.567,-7.096 -11.35,-16.312 -11.35,-27.649c-0,-12.874 4.79,-23.517 14.37,-31.928c9.58,-8.412 22.632,-12.618 39.154,-12.618c16.939,0 30.563,4.188 40.872,12.563c10.309,8.375 15.776,20.279 16.401,35.713l-19.369,1.646Z" style="fill-rule:nonzero;"/><path d="M1084.73,744.445c-4.443,18.067 -12.201,31.544 -23.273,40.431c-11.073,8.887 -24.35,13.33 -39.831,13.33c-24.992,0 -43.198,-8.247 -54.618,-24.741c-11.419,-16.494 -17.129,-36.335 -17.129,-59.522c-0,-25.674 6.716,-45.77 20.149,-60.29c13.433,-14.519 30.702,-21.779 51.806,-21.779c14.856,0 27.561,3.987 38.113,11.959c10.552,7.973 17.945,19.64 22.18,35l-19.785,4.938c-3.332,-11.191 -8.4,-19.603 -15.204,-25.235c-6.803,-5.633 -15.307,-8.449 -25.512,-8.449c-16.661,0 -29.296,5.761 -37.904,17.281c-8.609,11.52 -12.913,26.972 -12.913,46.356c0,22.382 4.53,39.023 13.59,49.921c9.059,10.899 20.878,16.348 35.457,16.348c11.94,0 21.642,-3.401 29.105,-10.204c7.463,-6.802 12.687,-17.042 15.672,-30.721l20.097,5.377Z" style="fill-rule:nonzero;"/><rect x="1112.63" y="634.617" width="20.306" height="160.846" style="fill-rule:nonzero;"/><path d="M1283.2,795.463l-114.025,0l-0,-160.846l110.484,0l0,19.091l-90.283,0l0,49.154l84.452,-0l-0,19.091l-84.452,-0l0,54.42l93.824,-0l-0,19.09Z" style="fill-rule:nonzero;"/><path d="M1431.49,795.463l-20.723,0l-79.765,-126.285l-0.417,0l0,126.285l-19.16,0l-0,-160.846l20.618,0l79.766,126.285l0.416,0l0,-126.285l19.265,0l-0,160.846Z" style="fill-rule:nonzero;"/><path d="M1594.25,744.445c-4.443,18.067 -12.201,31.544 -23.274,40.431c-11.073,8.887 -24.35,13.33 -39.831,13.33c-24.991,0 -43.197,-8.247 -54.617,-24.741c-11.42,-16.494 -17.13,-36.335 -17.13,-59.522c0,-25.674 6.717,-45.77 20.15,-60.29c13.433,-14.519 30.701,-21.779 51.806,-21.779c14.856,0 27.56,3.987 38.112,11.959c10.552,7.973 17.946,19.64 22.18,35l-19.785,4.938c-3.332,-11.191 -8.4,-19.603 -15.203,-25.235c-6.803,-5.633 -15.308,-8.449 -25.513,-8.449c-16.661,0 -29.296,5.761 -37.904,17.281c-8.608,11.52 -12.912,26.972 -12.912,46.356c-0,22.382 4.529,39.023 13.589,49.921c9.06,10.899 20.879,16.348 35.457,16.348c11.941,0 21.642,-3.401 29.105,-10.204c7.463,-6.802 12.687,-17.042 15.672,-30.721l20.098,5.377Z" style="fill-rule:nonzero;"/><path d="M1733.47,795.463l-114.025,0l-0,-160.846l110.484,0l0,19.091l-90.283,0l0,49.154l84.452,-0l-0,19.091l-84.452,-0l0,54.42l93.824,-0l-0,19.09Z" style="fill-rule:nonzero;"/><rect x="1823.65" y="634.617" width="20.306" height="160.846" style="fill-rule:nonzero;"/><path d="M2000.26,795.463l-20.722,0l-79.766,-126.285l-0.416,0l-0,126.285l-19.16,0l-0,-160.846l20.618,0l79.765,126.285l0.417,0l-0,-126.285l19.264,0l0,160.846Z" style="fill-rule:nonzero;"/><path d="M2163.02,744.445c-4.443,18.067 -12.2,31.544 -23.273,40.431c-11.073,8.887 -24.35,13.33 -39.831,13.33c-24.992,0 -43.197,-8.247 -54.617,-24.741c-11.42,-16.494 -17.13,-36.335 -17.13,-59.522c-0,-25.674 6.716,-45.77 20.15,-60.29c13.433,-14.519 30.701,-21.779 51.805,-21.779c14.857,0 27.561,3.987 38.113,11.959c10.552,7.973 17.945,19.64 22.18,35l-19.785,4.938c-3.332,-11.191 -8.4,-19.603 -15.203,-25.235c-6.804,-5.633 -15.308,-8.449 -25.513,-8.449c-16.661,0 -29.296,5.761 -37.904,17.281c-8.608,11.52 -12.912,26.972 -12.912,46.356c-0,22.382 4.529,39.023 13.589,49.921c9.059,10.899 20.878,16.348 35.457,16.348c11.94,0 21.642,-3.401 29.105,-10.204c7.463,-6.802 12.687,-17.042 15.672,-30.721l20.097,5.377Z" style="fill-rule:nonzero;"/></g></svg>